<svg width="591" height="368" viewBox="0 0 591 368" fill="none" xmlns="http://www.w3.org/2000/svg">
<g filter="url(#filter0_d_0_6905)">
<path opacity="0.1" d="M590.029 214.2C590.061 231.269 585.4 248.019 576.557 262.619C576.557 280.475 568.233 296.66 554.73 308.455C551.35 311.403 547.711 314.041 543.858 316.336C543.703 316.434 543.543 316.527 543.383 316.62C543.095 316.79 542.806 316.96 542.512 317.135L542.238 317.295V317.295C529.453 324.416 515.045 328.112 500.41 328.023H112.007C108.913 328.023 105.846 327.899 102.806 327.652C92.0045 326.801 81.3902 324.343 71.314 320.359C69.3473 319.582 67.4183 318.746 65.5272 317.852C64.6264 317.429 63.7341 316.994 62.8504 316.547C62.2986 316.269 61.7467 315.98 61.2 315.691C54.8459 312.343 48.8847 308.297 43.4269 303.628C25.8911 288.552 15.0189 267.726 15.0189 244.723C5.18206 229.575 -0.0362294 211.894 -3.39512e-06 193.833C-3.39512e-06 142.7 40.8688 101.249 91.2894 101.249C92.8367 101.249 94.384 101.295 95.9312 101.378C96.153 101.378 96.3696 101.378 96.5914 101.409C105.091 86.9209 116.453 73.6092 130.116 61.8911C167.374 29.9656 221.828 9.8407 282.487 9.8407C333.454 9.8407 380.042 24.0499 415.728 47.5272C429.25 39.8831 444.524 35.8759 460.057 35.8969C510.468 35.8969 551.347 77.3484 551.347 128.481C551.339 131.716 551.167 134.949 550.831 138.167C575.491 155.623 590.113 183.987 590.029 214.2Z" fill="#5E81F4"/>
<g opacity="0.2">
<path d="M71.3656 319.662C71.3656 319.9 71.3398 320.132 71.3141 320.359C69.3473 319.582 67.4184 318.746 65.5272 317.852C64.517 317.719 63.5774 317.261 62.8504 316.547C62.2986 316.269 61.7467 315.98 61.2 315.691C61.3238 315.432 61.4633 315.18 61.6178 314.938C62.6802 313.257 64.2946 312.205 66.0739 312.261C67.8533 312.318 69.3954 313.468 70.3496 315.206C71.0793 316.575 71.4301 318.113 71.3656 319.662V319.662Z" fill="#3F3D56"/>
<path d="M71.6441 310.833C71.609 312.38 71.1621 313.889 70.3496 315.206C69.2871 316.883 67.6728 317.935 65.8934 317.878L65.5272 317.852C64.517 317.719 63.5774 317.261 62.8504 316.547C62.3575 316.079 61.9415 315.536 61.6178 314.938C60.1705 312.146 60.2759 308.803 61.8963 306.108C62.9587 304.427 64.5731 303.375 66.3524 303.432C68.1318 303.488 69.6739 304.638 70.6281 306.376C71.3578 307.745 71.7086 309.283 71.6441 310.833Z" fill="#3F3D56"/>
<path d="M71.9243 302.018C72.0504 298.03 69.683 294.718 66.6367 294.622C63.5904 294.526 61.0186 297.681 60.8926 301.67C60.7665 305.659 63.1339 308.97 66.1802 309.066C69.2266 309.163 71.7983 306.007 71.9243 302.018Z" fill="#3F3D56"/>
<path d="M72.2006 293.188C72.3266 289.2 69.9593 285.888 66.9129 285.792C63.8666 285.696 61.2949 288.851 61.1688 292.84C61.0428 296.829 63.4101 300.14 66.4565 300.236C69.5028 300.333 72.0745 297.177 72.2006 293.188Z" fill="#3F3D56"/>
<path d="M72.5234 283.776C72.6432 279.785 70.2694 276.476 67.2216 276.385C64.1737 276.293 61.6059 279.454 61.4862 283.445C61.3665 287.436 63.7402 290.745 66.788 290.836C69.8359 290.928 72.4037 287.767 72.5234 283.776Z" fill="#3F3D56"/>
<path d="M48.208 223.092C47.4817 222.108 46.8268 221.074 46.2481 219.997L60.8235 218.073L45.1341 217.697C42.3044 210.985 42.3623 203.404 45.294 196.736L65.9863 208.315L47.0321 193.436C52.2441 185.006 61.7317 180.197 71.6118 180.978C81.4919 181.759 90.1063 187.998 93.9292 197.142C97.7521 206.286 96.1419 216.8 89.7576 224.381C90.8862 225.911 91.846 227.559 92.6201 229.296L73.4906 238.482L93.7754 232.381C96.3707 240.944 94.4655 250.239 88.7106 257.091C96.8958 268.196 95.1699 283.728 84.7464 292.765C74.3229 301.803 58.7035 301.31 48.87 291.634C39.0365 281.958 38.2925 266.348 47.161 255.781C39.9192 245.952 40.3455 232.444 48.1926 223.092H48.208Z" fill="#5E81F4"/>
<path opacity="0.1" d="M94.8997 240.927C94.7168 246.858 92.5359 252.554 88.7106 257.091C96.8958 268.196 95.1699 283.728 84.7464 292.765C74.3229 301.803 58.7035 301.31 48.87 291.634C39.0365 281.958 38.2925 266.348 47.161 255.781C43.7725 251.175 94.9926 237.956 94.8997 240.927Z" fill="black"/>
</g>
<path d="M494.097 71.3862V318.528C494.097 323.772 489.846 328.023 484.602 328.023H105.426C104.54 328.024 103.658 327.899 102.806 327.652C98.7336 326.488 95.9272 322.763 95.9312 318.528V208.238C95.9312 207.676 95.9312 207.119 95.9312 206.562V101.378C96.153 101.378 97.561 82.2791 97.7828 82.31C106.283 67.8223 113.792 61.8911 130.116 61.8911H484.602C489.846 61.8911 494.097 66.1422 494.097 71.3862Z" fill="white"/>
<rect x="367.308" y="93.9868" width="71.0871" height="18.5467" rx="9.27335" fill="#3F3D56"/>
<rect opacity="0.1" x="371.94" y="97.0865" width="61.8189" height="12.3421" rx="6.17106" fill="black"/>
<rect x="409.889" y="97.7622" width="22.3221" height="10.9908" rx="5.49542" fill="#5E81F4"/>
<path d="M420.88 106.695C422.777 106.695 424.315 105.157 424.315 103.26C424.315 101.363 422.777 99.8252 420.88 99.8252C418.983 99.8252 417.445 101.363 417.445 103.26C417.445 105.157 418.983 106.695 420.88 106.695Z" fill="white"/>
<rect x="367.308" y="216.248" width="71.0871" height="18.5467" rx="9.27335" fill="#3F3D56"/>
<rect opacity="0.1" x="371.94" y="219.347" width="61.8189" height="12.3421" rx="6.17106" fill="black"/>
<rect x="409.889" y="220.023" width="22.3221" height="10.9908" rx="5.49542" fill="#5E81F4"/>
<path d="M420.88 228.956C422.777 228.956 424.315 227.418 424.315 225.521C424.315 223.624 422.777 222.086 420.88 222.086C418.983 222.086 417.445 223.624 417.445 225.521C417.445 227.418 418.983 228.956 420.88 228.956Z" fill="white"/>
<rect x="367.308" y="277.375" width="71.0871" height="18.5467" rx="9.27335" fill="#3F3D56"/>
<rect opacity="0.1" x="371.94" y="280.48" width="61.8189" height="12.3421" rx="6.17106" fill="black"/>
<rect x="409.889" y="281.156" width="22.3221" height="10.9908" rx="5.49542" fill="#5E81F4"/>
<path d="M420.88 290.084C422.777 290.084 424.315 288.546 424.315 286.649C424.315 284.752 422.777 283.214 420.88 283.214C418.983 283.214 417.445 284.752 417.445 286.649C417.445 288.546 418.983 290.084 420.88 290.084Z" fill="white"/>
<rect x="151.633" y="82.3101" width="41.5547" height="10.9908" rx="5.49542" fill="#5E81F4"/>
<rect x="151.633" y="97.7622" width="115.391" height="10.9908" rx="5.49542" fill="#5E81F4"/>
<rect x="151.633" y="113.219" width="115.391" height="10.9908" rx="5.49542" fill="#5E81F4"/>
<g opacity="0.5">
<rect x="151.633" y="143.438" width="41.5547" height="10.9908" rx="5.49542" fill="#5E81F4"/>
<rect x="151.633" y="158.895" width="86.1318" height="10.9908" rx="5.49542" fill="#5E81F4"/>
<rect x="151.633" y="174.347" width="115.391" height="10.9908" rx="5.49542" fill="#5E81F4"/>
</g>
<rect x="151.633" y="204.571" width="41.5547" height="10.9908" rx="5.49542" fill="#5E81F4"/>
<rect x="151.633" y="220.023" width="115.391" height="10.9908" rx="5.49542" fill="#5E81F4"/>
<rect x="151.633" y="235.48" width="71.6905" height="10.9908" rx="5.49542" fill="#5E81F4"/>
<rect x="151.633" y="265.699" width="41.5547" height="10.9908" rx="5.49542" fill="#5E81F4"/>
<rect x="151.633" y="281.156" width="115.391" height="10.9908" rx="5.49542" fill="#5E81F4"/>
<rect x="151.633" y="296.608" width="92.8367" height="10.9908" rx="5.49542" fill="#5E81F4"/>
<path opacity="0.7" d="M134.097 134.092H470.373" stroke="#3F3D56" stroke-linecap="round"/>
<path opacity="0.7" d="M134.097 196.241H470.373" stroke="#3F3D56" stroke-linecap="round"/>
<path opacity="0.7" d="M134.097 258.39H470.373" stroke="#3F3D56" stroke-linecap="round"/>
<path opacity="0.7" d="M134.097 322.086H470.373" stroke="#3F3D56" stroke-linecap="round"/>
<path opacity="0.1" d="M410.029 359.995C452.095 359.995 486.196 357.57 486.196 354.579C486.196 351.589 452.095 349.164 410.029 349.164C367.963 349.164 333.861 351.589 333.861 354.579C333.861 357.57 367.963 359.995 410.029 359.995Z" fill="#5E81F4"/>
<path opacity="0.1" d="M36.3713 83.9708C42.5326 83.9708 47.5272 78.9762 47.5272 72.8149C47.5272 66.6537 42.5326 61.6591 36.3713 61.6591C30.2101 61.6591 25.2155 66.6537 25.2155 72.8149C25.2155 78.9762 30.2101 83.9708 36.3713 83.9708Z" fill="#5E81F4"/>
<path opacity="0.1" d="M82.8671 22.3117C89.0283 22.3117 94.0229 17.3171 94.0229 11.1559C94.0229 4.99466 89.0283 0 82.8671 0C76.7058 0 71.7112 4.99466 71.7112 11.1559C71.7112 17.3171 76.7058 22.3117 82.8671 22.3117Z" fill="#5E81F4"/>
<path opacity="0.1" d="M79.0865 72.2115C89.4122 72.2115 97.7828 63.8409 97.7828 53.5152C97.7828 43.1896 89.4122 34.819 79.0865 34.819C68.7609 34.819 60.3903 43.1896 60.3903 53.5152C60.3903 63.8409 68.7609 72.2115 79.0865 72.2115Z" fill="#5E81F4"/>
<rect x="367.308" y="155.115" width="71.0871" height="18.5467" rx="9.27335" fill="#3F3D56"/>
<rect opacity="0.1" x="371.94" y="158.219" width="61.8189" height="12.3421" rx="6.17106" fill="black"/>
<path fill-rule="evenodd" clip-rule="evenodd" d="M376.427 340.448C375.633 340.633 374.823 340.798 374.013 340.917C372.677 335.795 371.233 330.602 368.722 325.903C368.265 325.092 367.773 324.302 367.282 323.513C366.664 322.52 366.047 321.527 365.498 320.493C364.914 319.392 364.414 318.249 363.915 317.108C363.642 316.485 363.37 315.863 363.084 315.248C362.17 313.253 361.099 311.332 360.029 309.411C359.493 308.451 358.958 307.491 358.442 306.521C357.421 304.618 356.436 302.544 356.637 300.389C356.741 299.223 357.185 298.135 357.63 297.045C357.957 296.245 358.284 295.443 358.479 294.607C359.615 289.721 361.716 285.08 363.813 280.447C365.19 277.406 366.565 274.369 367.664 271.269C367.732 271.078 367.8 270.887 367.867 270.696C368.504 268.9 369.142 267.103 369.944 265.369C371.633 261.697 374.007 258.404 376.37 255.128L376.401 255.084C377.258 253.831 378.212 252.646 379.253 251.541C379.58 251.208 379.925 250.891 380.271 250.574C380.813 250.076 381.356 249.578 381.832 249.014C382.471 248.251 382.974 247.354 383.476 246.458C384.227 245.119 384.976 243.783 386.175 242.902C386.19 242.946 386.208 242.99 386.226 243.034C386.244 243.077 386.262 243.121 386.278 243.165C387.179 240.836 389.457 239.013 391.71 237.209C392.99 236.185 394.261 235.167 395.268 234.067C396.887 232.217 398.378 230.257 399.729 228.203C401.751 225.273 403.769 222.351 405.784 219.435C406.831 217.924 407.893 216.366 408.316 214.582C408.574 213.499 408.582 212.378 408.59 211.258C408.597 210.137 408.605 209.017 408.863 207.934C409.19 206.63 409.825 205.423 410.715 204.416L410.534 204.359C409.92 204.195 409.291 204.103 408.662 204.012C408.108 203.931 407.555 203.85 407.011 203.72C405.721 203.416 404.526 202.848 403.333 202.282C402.199 201.743 401.066 201.205 399.853 200.893C399.461 200.793 399.062 200.716 398.664 200.639C397.769 200.466 396.876 200.294 396.077 199.862C394.931 199.173 394.346 197.834 394.618 196.525C395.049 194.245 394.602 191.944 394.153 189.633C393.765 187.637 393.376 185.634 393.55 183.631C393.61 182.858 393.765 182.099 393.919 181.338C394.004 180.921 394.089 180.503 394.159 180.083C394.539 177.312 394.61 174.508 394.37 171.722C393.593 170.463 392.663 169.306 391.601 168.277C391.181 167.875 390.738 167.489 390.294 167.102C389.121 166.082 387.944 165.057 387.196 163.718C386.314 162.036 385.993 160.117 386.278 158.24C386.443 156.884 386.907 155.46 387.99 154.63C389.138 153.852 390.593 153.683 391.889 154.176C392.065 154.235 392.237 154.304 392.405 154.382C393.498 153.833 394.768 153.758 395.917 154.176C397.191 154.67 398.358 155.406 399.352 156.342C399.969 156.826 400.51 157.4 400.956 158.044C401.53 158.947 401.748 160.016 401.962 161.071C401.993 161.221 402.024 161.371 402.055 161.52C402.581 163.829 403.349 166.077 404.345 168.225C404.453 168.444 404.667 168.767 404.905 169.126C405.077 169.386 405.262 169.665 405.428 169.938L406.155 169.788C406.372 171.873 407.638 173.576 408.91 175.288C409.486 176.063 410.063 176.839 410.544 177.653C410.998 178.417 411.369 179.226 411.74 180.035C411.985 180.569 412.23 181.104 412.499 181.625C413.271 183.053 414.132 184.431 415.078 185.751L417.832 189.789C418.982 191.542 420.228 193.23 421.566 194.844C421.717 194.832 421.868 194.82 422.018 194.808C423.116 194.72 424.212 194.632 425.3 194.632C427.377 194.603 429.451 194.788 431.489 195.184C431.612 194.464 431.687 193.737 431.716 193.007V192.873C431.714 192.668 431.7 192.463 431.675 192.26C428.086 189.857 425.983 185.779 426.104 181.462C426.226 177.145 428.555 173.192 432.273 170.995C432.208 170.613 432.165 170.227 432.144 169.84V169.154C432.17 169.04 432.17 168.922 432.17 168.808C432.193 168.582 432.23 168.358 432.284 168.138C432.309 168.029 432.346 167.921 432.382 167.813L432.382 167.813C432.454 167.598 432.549 167.393 432.665 167.199V167.168C432.702 167.107 432.754 167.031 432.785 166.986C432.793 166.973 432.8 166.963 432.805 166.956C432.813 166.944 432.825 166.932 432.837 166.921C432.855 166.905 432.872 166.889 432.872 166.874C432.907 166.824 432.944 166.775 432.985 166.73L433.073 166.642C433.108 166.6 433.146 166.56 433.186 166.523L433.284 166.436L433.403 166.332L433.506 166.25L433.63 166.162L433.748 166.085L433.872 166.002L434.001 165.93L434.125 165.858L434.264 165.791L434.388 165.729L434.538 165.662L434.661 165.61L434.826 165.548L434.94 165.502L435.115 165.445L435.224 165.409L435.414 165.347L435.507 165.322L435.713 165.265H435.796L436.018 165.213H436.085L436.332 165.156H436.317L436.678 165.079C438.167 164.773 439.664 164.508 441.17 164.285C442.394 164.038 443.652 164.017 444.884 164.223C445.961 164.462 446.935 165.019 447.906 165.574C448.441 165.879 448.976 166.184 449.526 166.436C450.859 167.033 452.299 167.316 453.74 167.598C454.3 167.708 454.861 167.818 455.415 167.947C457.396 168.406 459.428 169.19 460.666 170.814C461.61 172.057 461.986 173.605 462.27 175.152C463.925 184.156 463.161 193.321 462.396 202.492C462.074 206.349 461.752 210.208 461.61 214.056C461.419 219.115 461.646 224.52 464.513 228.677L456.168 228.456C455.766 228.445 455.359 228.43 454.951 228.409C454.544 228.389 454.136 228.358 453.734 228.306C452.674 228.211 451.644 227.902 450.707 227.398C450.274 227.15 449.879 226.842 449.531 226.485C448.396 225.315 447.793 223.664 447.236 222.117C447.14 221.812 447.037 221.498 446.935 221.187C446.862 220.962 446.789 220.74 446.72 220.523C446.653 220.301 446.586 220.075 446.529 219.848L446.498 219.734L446.405 219.781C446.054 220.42 445.683 221.044 445.276 221.648C443.747 223.744 442.02 225.689 440.118 227.455C436.472 231.076 432.748 234.753 428.178 237.079C427.904 237.217 427.627 237.352 427.349 237.486C426.06 238.11 424.761 238.738 423.794 239.782C423.657 239.925 423.524 240.081 423.389 240.238C422.96 240.741 422.521 241.256 421.896 241.417C421.67 241.475 421.439 241.485 421.209 241.494C420.914 241.506 420.622 241.517 420.349 241.633C419.754 241.899 419.478 242.524 419.21 243.133C419.155 243.257 419.101 243.381 419.044 243.5C418.709 244.207 417.966 244.924 417.26 244.604C417.532 245.943 417.015 247.319 415.929 248.147C415.588 248.339 415.294 248.603 415.068 248.921C414.958 249.213 414.897 249.522 414.887 249.834C414.746 250.701 414.288 251.486 413.603 252.036C414.06 252.791 413.942 253.771 413.824 254.755C413.77 255.202 413.716 255.651 413.716 256.08C413.705 256.944 413.925 257.788 414.145 258.628C414.216 258.902 414.287 259.174 414.351 259.448C415.114 262.728 414.691 266.158 414.083 269.464C413.747 271.315 413.309 273.203 412.123 274.621C411.9 274.882 411.656 275.123 411.411 275.364C411.226 275.547 411.04 275.729 410.864 275.921C410.086 276.797 409.439 277.782 408.946 278.845C407.924 280.953 407.228 283.203 406.883 285.519C406.717 286.682 406.386 287.814 405.897 288.882C405.523 289.713 405.515 290.64 405.508 291.571C405.5 292.46 405.493 293.352 405.165 294.163C405.043 294.471 404.876 294.76 404.709 295.049C404.474 295.457 404.239 295.863 404.134 296.319C403.974 297.063 404.177 297.809 404.381 298.561C404.487 298.95 404.593 299.341 404.649 299.734C404.868 301.257 404.341 302.721 403.809 304.197C403.4 305.33 402.99 306.47 402.911 307.65C402.882 307.81 402.917 307.975 403.009 308.109C403.079 308.206 403.201 308.238 403.325 308.271C403.394 308.289 403.463 308.307 403.525 308.336C403.837 308.485 403.935 308.852 404.027 309.197C404.04 309.246 404.053 309.295 404.066 309.342C404.175 309.724 404.484 310.152 404.856 310.038C407.619 311.513 410.424 312.932 413.228 314.351C416.101 315.805 418.974 317.259 421.798 318.77L424.346 320.132L437.973 327.414C438.311 327.58 438.524 327.925 438.519 328.301C438.499 328.48 438.488 328.652 438.488 328.817C438.886 328.914 439.271 329.019 439.632 329.117C440.154 329.259 440.626 329.387 441.01 329.457L441.815 329.617C441.751 329.515 441.709 329.4 441.691 329.281C441.691 328.935 441.946 328.642 442.289 328.595C442.623 328.562 442.961 328.606 443.275 328.724C444.05 328.936 444.842 329.081 445.642 329.158C446.6 329.193 447.554 329.307 448.494 329.498C449.449 329.704 450.26 330.329 450.701 331.2C450.886 331.714 450.968 332.259 450.944 332.804C450.965 334.904 450.717 336.998 450.206 339.034C450.165 339.189 450.083 339.38 449.959 339.432C449.897 339.457 449.831 339.457 449.766 339.457C449.701 339.457 449.636 339.457 449.577 339.483C449.472 339.547 449.394 339.645 449.355 339.762C448.858 341.097 448.569 342.501 448.499 343.924C448.272 346.018 447.983 348.127 447.638 350.19C447.421 351.402 447.184 352.676 446.39 353.615C445.523 354.646 444.146 355.085 442.815 355.265C440.015 355.642 437.183 355.075 434.419 354.492C433.891 354.438 433.394 354.214 433.006 353.852C432.752 353.533 432.628 353.129 432.66 352.723C432.722 351.325 433.996 350.34 435.151 349.561L436.74 348.483C436.849 348.419 436.944 348.333 437.018 348.23C437.096 348.07 437.123 347.89 437.096 347.715C437.078 347.378 437.062 347.042 437.045 346.707C437.028 346.355 437.011 346.003 436.993 345.652H437.302C437.042 344.204 436.361 342.865 435.342 341.804C434.915 341.406 434.416 341.082 433.92 340.758C433.56 340.524 433.201 340.29 432.872 340.03C431.881 340.789 430.683 341.23 429.437 341.293C427.399 338.544 424.527 336.677 421.659 334.836C419.327 333.363 416.917 332.019 414.438 330.808C412.43 329.814 410.395 328.884 408.332 328.018C405.407 326.79 402.437 325.692 399.456 324.624C397.445 323.974 395.497 323.148 393.633 322.154C388.872 319.405 385.515 313.922 386.154 308.424C386.623 304.4 386.239 300.285 385.856 296.178C385.578 293.194 385.3 290.215 385.35 287.278C385.297 285.25 385.542 283.226 386.077 281.269C385.932 281.368 385.796 281.478 385.669 281.599C385.016 282.209 384.625 283.012 384.227 283.829C383.874 284.552 383.517 285.286 382.967 285.906C382.624 286.293 382.215 286.625 381.806 286.956C381.12 287.512 380.438 288.064 380.089 288.867C379.948 289.19 379.86 289.552 379.774 289.91C379.601 290.625 379.432 291.329 378.841 291.703C378.714 291.781 378.576 291.837 378.438 291.894C378.3 291.951 378.162 292.007 378.036 292.085C377.736 292.3 377.484 292.574 377.293 292.889C376.355 294.21 375.38 295.664 375.277 297.304C375.269 297.415 375.264 297.528 375.259 297.642C375.236 298.2 375.212 298.777 374.818 299.146C374.779 299.181 374.738 299.214 374.696 299.247C374.592 299.329 374.488 299.411 374.436 299.532C374.344 299.749 374.458 299.964 374.576 300.185C374.649 300.322 374.723 300.461 374.751 300.605C374.826 301.01 374.539 301.338 374.256 301.66C374.172 301.757 374.087 301.854 374.013 301.951C373.469 302.702 373.469 303.717 374.013 304.468C375.53 306.431 376.371 308.776 377.214 311.128C377.921 313.102 378.63 315.082 379.743 316.846C380.136 317.484 380.556 318.108 380.978 318.733C381.436 319.412 381.895 320.093 382.322 320.797C384.829 324.944 386.092 329.715 387.325 334.413C386.806 335.325 386.104 336.119 385.262 336.744C385.721 338.327 386.514 339.792 387.588 341.041C387.862 341.348 388.118 341.67 388.356 342.005C388.555 341.751 388.816 341.554 389.115 341.433C389.555 343.376 389.78 345.361 389.785 347.354C389.79 348.669 389.599 350.175 388.532 350.933C388.106 351.204 387.637 351.399 387.144 351.511L384.813 352.171C384.403 352.329 383.957 352.372 383.524 352.295C383.392 352.261 383.27 352.205 383.149 352.149C383.01 352.086 382.873 352.023 382.724 351.995C382.417 351.963 382.106 352.003 381.817 352.114L379.805 352.702C379.124 352.883 378.458 353.118 377.814 353.403C377.475 353.569 377.15 353.761 376.825 353.954C376.601 354.086 376.377 354.218 376.148 354.342C375.209 354.815 374.235 355.215 373.234 355.539L369.691 356.777C368.723 357.16 367.712 357.422 366.679 357.555C366.394 357.58 366.108 357.585 365.822 357.59C365.392 357.597 364.963 357.605 364.539 357.679C364.288 357.718 364.047 357.779 363.812 357.838C363.517 357.912 363.231 357.983 362.945 358.009C362.049 358.037 361.168 357.774 360.433 357.261C360.145 357.099 359.895 356.875 359.701 356.606C359.195 355.812 359.613 354.76 360.129 353.96C360.995 352.43 362.238 351.146 363.739 350.232C364.119 350.02 364.514 349.845 364.909 349.669C365.158 349.559 365.407 349.449 365.653 349.329C366.684 348.823 367.57 348.134 368.457 347.443C369.127 346.922 369.797 346.4 370.532 345.956C370.981 345.636 371.594 345.677 371.997 346.054C372.111 345.98 372.227 345.905 372.343 345.831C373.66 344.986 375.021 344.112 375.746 342.738C376.093 342.015 376.323 341.242 376.427 340.448ZM408.131 193.124L408.136 193.126V193.136C408.134 193.132 408.133 193.128 408.131 193.124ZM408.131 193.124C406.532 188.853 403.986 184.896 401.292 181.068C401.359 181.449 401.431 181.826 401.513 182.207C402.21 185.4 403.164 188.974 405.387 191.347C406.117 192.042 406.963 192.602 407.888 193.002L408.131 193.124Z" fill="url(#paint0_linear_0_6905)"/>
<path d="M398.001 162.155C397.748 160.963 397.563 159.726 396.908 158.704C396.459 158.063 395.917 157.493 395.299 157.013C394.298 156.082 393.129 155.352 391.853 154.862C390.557 154.375 389.106 154.542 387.954 155.311C386.866 156.136 386.407 157.549 386.237 158.921C385.952 160.786 386.274 162.694 387.155 164.362C388.212 166.198 390.038 167.426 391.57 168.891C392.682 169.963 393.65 171.177 394.448 172.501C394.811 173.187 395.251 173.831 395.758 174.42C396.277 175.004 397.041 175.312 397.821 175.25C398.464 175.08 399.047 174.735 399.507 174.254C400.136 173.703 401.828 172.707 401.88 171.846C401.921 171.139 400.601 169.54 400.276 168.875C399.283 166.721 398.521 164.469 398.001 162.155Z" fill="#FBBEBE"/>
<path opacity="0.1" d="M398.001 162.155C397.748 160.963 397.563 159.726 396.908 158.704C396.459 158.063 395.917 157.493 395.299 157.013C394.298 156.082 393.129 155.352 391.853 154.862C390.557 154.375 389.106 154.542 387.954 155.311C386.866 156.136 386.407 157.549 386.237 158.921C385.952 160.786 386.274 162.694 387.155 164.362C388.212 166.198 390.038 167.426 391.57 168.891C392.682 169.963 393.65 171.177 394.448 172.501C394.811 173.187 395.251 173.831 395.758 174.42C396.277 175.004 397.041 175.312 397.821 175.25C398.464 175.08 399.047 174.735 399.507 174.254C400.136 173.703 401.828 172.707 401.88 171.846C401.921 171.139 400.601 169.54 400.276 168.875C399.283 166.721 398.521 164.469 398.001 162.155Z" fill="black"/>
<path d="M433.676 196.107C430.956 195.378 428.147 195.031 425.331 195.076C420.633 195.143 415.795 196.282 411.318 194.838C410.167 194.446 409.046 193.969 407.966 193.41C407.04 193.013 406.191 192.456 405.459 191.764C403.231 189.407 402.272 185.854 401.581 182.687C400.97 179.501 400.616 176.27 400.523 173.027C399.363 173.568 398.135 174.1 396.861 173.991C395.587 173.883 394.283 172.903 394.283 171.624C394.473 174.626 394.613 177.664 394.112 180.624C393.916 181.8 393.597 182.96 393.509 184.147C393.127 188.443 395.381 192.734 394.577 196.968C394.3 198.271 394.888 199.605 396.036 200.28C397.191 200.904 398.548 200.981 399.817 201.311C402.308 201.946 404.458 203.529 406.986 204.122C408.146 204.395 409.358 204.447 410.513 204.756C412.159 205.195 413.66 206.139 415.341 206.433C416.599 206.66 417.92 206.505 419.173 206.613C420.282 206.706 421.365 206.995 422.479 207.026C425.202 207.093 427.771 205.556 429.576 203.513C431.381 201.471 432.531 198.567 433.676 196.107Z" fill="#F86D70"/>
<path opacity="0.1" d="M433.676 196.107C430.956 195.378 428.147 195.031 425.331 195.076C420.633 195.143 415.795 196.282 411.318 194.838C410.167 194.446 409.046 193.969 407.966 193.41C407.04 193.013 406.191 192.456 405.459 191.764C403.231 189.407 402.272 185.854 401.581 182.687C400.97 179.501 400.616 176.27 400.523 173.027C399.363 173.568 398.135 174.1 396.861 173.991C395.587 173.883 394.283 172.903 394.283 171.624C394.473 174.626 394.613 177.664 394.112 180.624C393.916 181.8 393.597 182.96 393.509 184.147C393.127 188.443 395.381 192.734 394.577 196.968C394.3 198.271 394.888 199.605 396.036 200.28C397.191 200.904 398.548 200.981 399.817 201.311C402.308 201.946 404.458 203.529 406.986 204.122C408.146 204.395 409.358 204.447 410.513 204.756C412.159 205.195 413.66 206.139 415.341 206.433C416.599 206.66 417.92 206.505 419.173 206.613C420.282 206.706 421.365 206.995 422.479 207.026C425.202 207.093 427.771 205.556 429.576 203.513C431.381 201.471 432.531 198.567 433.676 196.107Z" fill="black"/>
<path d="M441.134 328.884C441.976 328.989 442.792 329.244 443.543 329.637C444.523 330.334 445.256 331.323 445.637 332.464C446.761 335.238 446.993 338.292 447.045 341.288C447.086 343.707 447.003 346.183 446.137 348.442C445.9 349.155 445.491 349.798 444.946 350.314C444.462 350.693 443.903 350.964 443.305 351.108C442.011 351.464 440.515 351.459 439.458 350.634C438.282 349.716 437.988 348.091 437.74 346.621C437.405 344.641 436.931 342.531 435.456 341.164C434.362 340.133 432.794 339.617 432 338.369C431.051 336.868 431.551 334.908 432.155 333.237C432.671 331.788 433.449 328.853 434.966 328.111C436.482 327.368 439.561 328.601 441.134 328.884Z" fill="#FBBEBE"/>
<path d="M385.272 336.002C385.727 337.621 386.534 339.119 387.634 340.391C388.305 341.164 389.146 342.103 388.795 343.062C388.647 343.388 388.431 343.679 388.16 343.913C383.178 348.782 376.21 351.134 369.299 352.021C369.189 352.05 369.074 352.05 368.964 352.021C368.763 351.934 368.711 351.676 368.691 351.454C368.577 350.735 368.577 350.002 368.691 349.283C369.026 347.596 370.506 346.405 371.955 345.471C373.405 344.538 374.988 343.64 375.793 342.119C376.798 340.231 376.375 337.771 377.572 336.002C378.542 334.563 380.347 333.939 382.064 333.681C382.657 333.588 383.921 332.938 384.426 333.237C384.932 333.536 385.097 335.409 385.272 336.002Z" fill="#FBBEBE"/>
<path d="M441.815 328.709C441.815 328.364 442.071 328.072 442.413 328.028C442.747 327.995 443.083 328.038 443.398 328.152C444.173 328.367 444.965 328.514 445.766 328.59C446.726 328.624 447.681 328.736 448.623 328.926C449.577 329.126 450.39 329.745 450.836 330.612C451.019 331.124 451.102 331.667 451.078 332.211C451.099 334.297 450.851 336.377 450.34 338.4C450.299 338.555 450.237 338.735 450.088 338.792C449.938 338.849 449.83 338.792 449.711 338.849C449.603 338.908 449.523 339.009 449.489 339.127C448.99 340.45 448.699 341.842 448.628 343.253C448.401 345.316 448.112 347.41 447.767 349.473C447.566 350.68 447.313 351.949 446.519 352.877C445.647 353.909 444.27 354.337 442.939 354.518C440.134 354.889 437.302 354.327 434.532 353.749C434.004 353.696 433.506 353.474 433.114 353.115C432.86 352.798 432.736 352.395 432.769 351.99C432.83 350.603 434.109 349.623 435.26 348.849L436.853 347.782C436.964 347.72 437.06 347.634 437.132 347.529C437.21 347.369 437.237 347.189 437.209 347.013L437.106 344.95C439.256 344.989 441.212 346.205 442.197 348.117C442.413 348.555 442.625 349.066 443.079 349.236C443.692 349.376 444.306 349.004 444.466 348.395C444.603 347.805 444.587 347.189 444.42 346.606C443.486 341.618 443.708 336.492 443.14 331.453C443.104 330.885 442.927 330.336 442.625 329.854C442.382 329.508 441.872 329.173 441.815 328.709Z" fill="#F86D70"/>
<rect x="395.809" y="169.886" width="22.3221" height="10.9908" rx="5.49542" transform="rotate(180 395.809 169.886)" fill="#5E81F4"/>
<path d="M384.818 167.823C386.715 167.823 388.253 166.285 388.253 164.388C388.253 162.491 386.715 160.953 384.818 160.953C382.921 160.953 381.383 162.491 381.383 164.388C381.383 166.285 382.921 167.823 384.818 167.823Z" fill="white"/>
<path d="M372.435 348.045C372.203 348.432 371.837 348.731 371.62 349.128C371.366 349.519 371.441 350.037 371.795 350.34C372.027 350.441 372.286 350.467 372.533 350.412C377.515 349.79 382.19 347.672 385.943 344.336C386.567 343.81 387.12 343.205 387.588 342.536C388.026 341.871 388.398 341.056 389.135 340.778C389.584 342.714 389.816 344.695 389.826 346.683C389.826 347.993 389.641 349.484 388.573 350.242C388.144 350.509 387.674 350.7 387.181 350.809L384.849 351.469C384.436 351.625 383.99 351.668 383.555 351.593C383.281 351.521 383.039 351.346 382.755 351.294C382.448 351.261 382.137 351.302 381.848 351.413L379.831 352.001C379.149 352.178 378.483 352.41 377.84 352.697C377.262 352.97 376.731 353.321 376.169 353.625C375.229 354.097 374.253 354.493 373.25 354.811L369.707 356.044C368.736 356.423 367.723 356.683 366.689 356.818C365.978 356.88 365.25 356.818 364.544 356.936C364.028 357.029 363.512 357.225 362.945 357.266C362.05 357.294 361.169 357.034 360.433 356.524C360.146 356.361 359.896 356.14 359.701 355.874C359.185 355.085 359.634 354.043 360.129 353.244C361.001 351.725 362.243 350.451 363.739 349.54C364.358 349.2 365.023 348.952 365.658 348.643C367.468 347.766 368.835 346.301 370.542 345.301C372.156 344.357 373.193 346.797 372.435 348.045Z" fill="#F86D70"/>
<path d="M422.247 205.241C424.121 206.527 426.268 207.362 428.519 207.681C429.696 207.827 430.881 207.891 432.067 207.872C437.015 207.867 441.953 207.454 446.833 206.639C444.894 204.499 442.929 202.209 442.191 199.418C441.827 197.939 441.75 196.404 441.964 194.895C442.262 192.968 442.724 191.07 443.347 189.222C441.265 189.331 439.179 189.278 437.106 189.062C435.925 188.938 433.026 187.865 432 188.68C430.974 189.495 431.763 192.12 431.778 193.353C431.781 193.398 431.781 193.442 431.778 193.487C431.728 195.365 431.324 197.216 430.587 198.944C429.112 202.276 425.914 205.02 422.247 205.241Z" fill="#FBBEBE"/>
<path opacity="0.1" d="M431.783 193.327C434.794 195.295 438.51 195.859 441.97 194.875C442.267 192.947 442.729 191.049 443.352 189.201C441.271 189.31 439.184 189.257 437.111 189.041C435.93 188.918 433.032 187.845 432.005 188.66C430.979 189.475 431.768 192.095 431.783 193.327Z" fill="black"/>
<path d="M438.591 194.777C445.459 194.777 451.026 189.209 451.026 182.342C451.026 175.474 445.459 169.907 438.591 169.907C431.724 169.907 426.156 175.474 426.156 182.342C426.156 189.209 431.724 194.777 438.591 194.777Z" fill="#FBBEBE"/>
<path d="M385.834 245.259C385.826 247.3 386.892 249.194 388.64 250.246C389.597 250.749 390.622 251.111 391.683 251.319C397.356 252.691 403.195 253.795 409.038 253.46C410.305 253.449 411.557 253.186 412.721 252.686C413.896 252.165 414.745 251.105 414.995 249.844C415.001 249.535 415.061 249.23 415.171 248.942C415.398 248.625 415.692 248.362 416.032 248.173C417.118 247.356 417.637 245.988 417.368 244.656C418.074 244.975 418.817 244.258 419.152 243.557C419.488 242.856 419.746 242.01 420.457 241.705C420.942 241.499 421.489 241.623 422.005 241.489C422.825 241.277 423.325 240.457 423.903 239.864C425.079 238.606 426.755 237.956 428.292 237.177C432.872 234.872 436.601 231.215 440.257 227.62C442.158 225.869 443.886 223.938 445.415 221.854C445.825 221.255 446.203 220.635 446.55 219.997C447.652 217.88 448.608 215.689 449.412 213.442C449.876 212.235 450.346 210.966 450.155 209.687C450.155 209.574 450.113 209.46 450.088 209.342C449.849 208.521 449.467 207.749 448.958 207.062C447.695 205.205 446.039 203.452 443.862 202.874C441.686 202.296 439.52 202.993 437.307 203.462C436.575 203.626 435.832 203.74 435.084 203.802C432.743 203.967 430.442 203.338 428.163 202.714L425.697 202.033C424.465 201.693 423.846 200.202 422.603 199.939C422.044 199.855 421.474 199.885 420.927 200.027C418.394 200.507 415.836 201.131 413.603 202.42C413.104 202.706 412.628 203.03 412.179 203.39C410.559 204.6 409.392 206.32 408.868 208.274C408.352 210.425 408.837 212.725 408.321 214.876C407.899 216.65 406.831 218.197 405.789 219.693L399.713 228.394C398.359 230.433 396.867 232.376 395.247 234.212C391.977 237.765 385.922 240.437 385.834 245.259Z" fill="#F86D70"/>
<path d="M402.05 162.155C401.797 160.963 401.611 159.726 400.956 158.704C400.508 158.063 399.965 157.493 399.347 157.013C398.347 156.082 397.177 155.352 395.902 154.862C394.606 154.375 393.155 154.542 392.003 155.311C390.915 156.136 390.456 157.549 390.285 158.921C390 160.786 390.322 162.694 391.203 164.362C392.235 166.198 394.087 167.426 395.618 168.891C396.731 169.963 397.698 171.177 398.496 172.501C398.86 173.187 399.3 173.831 399.806 174.42C400.326 175.004 401.09 175.312 401.869 175.25C402.512 175.08 403.096 174.735 403.556 174.254C404.185 173.703 405.877 172.707 405.928 171.846C405.97 171.139 404.649 169.54 404.324 168.875C403.332 166.721 402.57 164.469 402.05 162.155V162.155Z" fill="#FBBEBE"/>
<path d="M358.355 306.175C359.902 309.064 361.625 311.849 363.022 314.84C363.832 316.578 364.534 318.363 365.436 320.054C366.421 321.896 367.633 323.608 368.665 325.423C371.244 330.014 372.703 335.192 374.039 340.293C377.772 339.738 381.364 338.474 384.622 336.569C384.841 336.445 385.053 336.309 385.257 336.162C386.129 335.538 386.857 334.734 387.392 333.805C386.159 329.163 384.896 324.402 382.384 320.281C381.564 318.94 380.625 317.703 379.805 316.356C377.366 312.514 376.86 307.671 374.07 304.076C373.523 303.334 373.523 302.322 374.07 301.58C374.39 301.162 374.905 300.765 374.807 300.244C374.735 299.868 374.343 299.527 374.493 299.177C374.565 299.006 374.74 298.913 374.875 298.79C375.349 298.356 375.287 297.609 375.334 296.969C375.437 295.339 376.411 293.911 377.355 292.58C377.547 292.267 377.8 291.995 378.098 291.781C378.351 291.626 378.65 291.554 378.903 291.399C379.79 290.847 379.728 289.547 380.156 288.583C380.713 287.314 382.116 286.669 383.039 285.643C384.21 284.333 384.504 282.512 385.742 281.367C385.869 281.248 386.005 281.137 386.149 281.037C385.612 282.986 385.367 285.004 385.422 287.025C385.303 293.957 387.036 301.126 386.226 308.011C385.587 313.468 388.95 318.915 393.715 321.648C395.584 322.635 397.536 323.456 399.548 324.103C402.53 325.16 405.511 326.249 408.435 327.471C410.498 328.327 412.561 329.256 414.552 330.241C417.03 331.442 419.441 332.778 421.772 334.243C424.645 336.069 427.523 337.926 429.56 340.654C431.536 340.602 433.346 339.416 434.594 337.884C435.842 336.352 436.621 334.501 437.348 332.67C437.983 331.087 438.612 329.462 438.658 327.755C438.66 327.38 438.447 327.038 438.112 326.873L424.465 319.652L421.886 318.301C416.3 315.335 410.539 312.591 404.923 309.631C404.546 309.739 404.237 309.311 404.128 308.94C404.02 308.568 403.943 308.104 403.587 307.939C403.406 307.857 403.179 307.857 403.071 307.712C402.983 307.579 402.949 307.416 402.978 307.258C403.159 304.556 405.108 302.07 404.716 299.393C404.551 298.248 403.958 297.124 404.201 296.005C404.381 295.226 404.938 294.597 405.232 293.859C405.897 292.209 405.232 290.249 405.964 288.614C406.453 287.553 406.785 286.428 406.95 285.272C407.301 282.97 408.006 280.736 409.038 278.649C409.532 277.591 410.179 276.611 410.957 275.74C411.37 275.302 411.829 274.905 412.215 274.451C413.407 273.043 413.84 271.166 414.181 269.355C414.789 266.07 415.212 262.65 414.449 259.406C414.191 258.297 413.799 257.199 413.814 256.059C413.814 254.558 414.49 252.799 413.448 251.711C413.009 251.321 412.476 251.051 411.901 250.927C409.475 250.273 407 249.816 404.5 249.56L393.122 248.08C391.808 247.993 390.522 247.659 389.331 247.095C387.784 246.244 386.752 244.661 386.134 243.01C384.132 244.47 383.379 247.188 381.786 249.076C381.007 249.999 380.048 250.742 379.207 251.587C378.162 252.684 377.207 253.862 376.35 255.11C373.972 258.375 371.579 261.665 369.877 265.322C368.995 267.225 368.33 269.211 367.597 271.181C364.817 278.954 360.284 286.329 358.401 294.359C357.937 296.324 356.735 298.093 356.555 300.105C356.343 302.235 357.328 304.298 358.355 306.175Z" fill="#434175"/>
<path opacity="0.1" d="M418.038 241.654C418.315 242.171 418.459 242.749 418.456 243.335C418.203 242.077 416.471 241.381 416.362 240.138C416.311 239.565 416.414 239.591 416.77 239.895C417.311 240.344 417.543 241.159 418.038 241.654Z" fill="black"/>
<path opacity="0.1" d="M412.773 245.47C413.136 245.781 413.408 246.184 413.562 246.636C413.85 247.272 413.905 247.99 413.716 248.663C413.464 248.544 413.376 248.235 413.299 247.962C413.182 247.54 413.008 247.135 412.783 246.76C412.577 246.435 411.633 245.661 411.643 245.305C411.628 244.769 412.52 245.28 412.773 245.47Z" fill="black"/>
<path opacity="0.1" d="M412.164 203.39C412.964 204.075 413.843 204.66 414.784 205.133C417.249 206.381 419.978 207.036 422.458 208.227C423.682 208.849 424.87 209.538 426.017 210.29C428.477 211.838 430.932 213.385 433.387 214.958C433.979 215.299 434.524 215.713 435.012 216.191C435.899 217.14 435.894 218.77 436.704 219.801C437.608 220.832 438.907 221.432 440.278 221.452C441.636 221.463 442.985 221.236 444.265 220.781C445.041 220.551 445.802 220.274 446.544 219.951C447.321 219.623 448.055 219.204 448.731 218.703C450.097 217.742 451.025 216.278 451.31 214.633C451.399 213.508 451.25 212.376 450.872 211.312C450.667 210.619 450.405 209.944 450.088 209.295C449.906 208.927 449.696 208.573 449.458 208.238C447.767 205.839 444.786 204.71 441.903 204.148C440.381 203.854 438.834 203.673 437.307 203.415C436.575 203.58 435.832 203.693 435.084 203.756C432.743 203.921 430.442 203.292 428.163 202.668L425.697 201.987C424.465 201.646 423.846 200.156 422.603 199.893C422.044 199.809 421.474 199.838 420.927 199.98C418.394 200.46 415.836 201.084 413.603 202.374C413.097 202.673 412.616 203.013 412.164 203.39H412.164Z" fill="black"/>
<path d="M406.155 170.386C406.47 173.393 409.007 175.601 410.555 178.195C411.308 179.458 411.834 180.841 412.509 182.146C413.282 183.574 414.143 184.952 415.088 186.272L417.848 190.279C419.472 192.636 421.112 195.014 423.186 196.984C426.796 197.598 429.839 200.285 433.269 201.59C436.018 202.621 439.009 202.776 441.892 203.338C444.775 203.9 447.756 205.025 449.448 207.428C450.081 208.378 450.558 209.423 450.861 210.523C451.239 211.585 451.388 212.715 451.3 213.839C451.016 215.486 450.088 216.952 448.721 217.913C447.364 218.854 445.855 219.552 444.26 219.976C442.98 220.429 441.631 220.656 440.273 220.647C438.9 220.626 437.601 220.027 436.693 218.997C435.889 217.965 435.894 216.32 435.007 215.386C434.519 214.909 433.973 214.495 433.382 214.154L426.012 209.512C424.865 208.759 423.677 208.07 422.453 207.449C419.973 206.237 417.244 205.582 414.779 204.354C412.313 203.127 410.018 201.048 409.534 198.33C408.033 189.98 402.251 182.94 397.31 176.044C397.47 176.013 397.424 175.642 397.48 175.487C398.196 173.869 399.48 172.569 401.091 171.836C402.679 170.974 404.443 170.752 406.155 170.386Z" fill="#F86D70"/>
<path d="M432.206 170.448C432.114 169.543 432.293 168.631 432.722 167.828C433.542 166.467 435.254 165.987 436.812 165.667C438.37 165.347 439.803 165.1 441.309 164.883C442.535 164.637 443.795 164.614 445.028 164.816C446.709 165.187 448.123 166.317 449.67 167.013C451.527 167.844 453.59 168.045 455.57 168.519C457.551 168.994 459.588 169.752 460.831 171.366C461.775 172.589 462.151 174.151 462.435 175.673C464.792 188.376 462.254 201.404 461.775 214.314C461.584 219.337 461.811 224.706 464.684 228.837L456.323 228.616C454.183 228.559 451.883 228.445 450.201 227.125C448.716 225.965 448.014 224.092 447.385 222.323C446.815 220.949 446.454 219.498 446.312 218.017C446.183 214.984 447.906 212.008 447.344 209.022C446.926 206.794 445.281 204.989 443.568 203.529C441.856 202.069 439.907 200.795 438.499 199.016C435.997 195.844 435.517 191.517 435.827 187.489C436.013 185.096 436.446 182.697 436.234 180.304C436.129 178.473 435.468 176.718 434.342 175.271C433.026 173.682 432.33 172.692 432.206 170.448Z" fill="#434175"/>
<path opacity="0.1" d="M432.722 167.828C433.527 166.487 435.198 166.002 436.73 165.688C435.917 165.974 435.22 166.517 434.744 167.235C434.318 168.041 434.139 168.954 434.228 169.86C434.342 172.104 435.038 173.094 436.368 174.683C437.5 176.128 438.162 177.884 438.266 179.716C438.473 182.11 438.045 184.503 437.859 186.901C437.544 190.924 438.024 195.256 440.531 198.428C441.934 200.208 443.868 201.476 445.601 202.941C447.334 204.406 448.958 206.206 449.376 208.434C449.933 211.415 448.21 214.396 448.344 217.429C448.481 218.908 448.841 220.359 449.412 221.73C450.046 223.504 450.748 225.377 452.228 226.537C453.909 227.857 456.215 227.971 458.355 228.028L464.276 228.182C464.405 228.399 464.544 228.616 464.689 228.827L456.328 228.605C454.188 228.548 451.888 228.435 450.206 227.115C448.721 225.954 448.019 224.082 447.39 222.313C446.82 220.939 446.459 219.487 446.317 218.006C446.189 214.974 447.911 211.998 447.349 209.012C446.931 206.783 445.286 204.978 443.574 203.519C441.861 202.059 439.912 200.785 438.504 199.006C436.002 195.834 435.523 191.507 435.832 187.479C436.018 185.085 436.451 182.687 436.24 180.294C436.134 178.463 435.474 176.707 434.347 175.26C433.016 173.672 432.32 172.681 432.201 170.438C432.112 169.536 432.294 168.627 432.722 167.828Z" fill="black"/>
<path opacity="0.1" d="M369.913 298.743L385.272 336.162C386.145 335.538 386.873 334.734 387.407 333.805C386.175 329.163 384.911 324.402 382.399 320.281C381.579 318.94 380.641 317.703 379.821 316.356C377.381 312.514 376.876 307.671 374.085 304.076C373.539 303.334 373.539 302.322 374.085 301.58C374.405 301.162 374.921 300.765 374.823 300.244C374.751 299.868 374.359 299.527 374.508 299.177C374.581 299.006 374.756 298.913 374.89 298.79C375.364 298.356 375.303 297.609 375.349 296.969C375.452 295.339 376.427 293.911 377.371 292.58C377.563 292.267 377.815 291.995 378.113 291.781C378.366 291.626 378.665 291.554 378.918 291.399C379.805 290.847 379.743 289.547 380.171 288.583C380.728 287.314 382.131 286.669 383.054 285.643C384.225 284.333 384.519 282.512 385.757 281.367L385.865 281.099L384.705 273.879L369.913 298.743Z" fill="black"/>
<path d="M503.923 343.434C513.593 343.434 521.433 341.926 521.433 340.066C521.433 338.206 513.593 336.698 503.923 336.698C494.252 336.698 486.413 338.206 486.413 340.066C486.413 341.926 494.252 343.434 503.923 343.434Z" fill="#5E81F4"/>
<path d="M504.217 341.299C505.342 341.299 506.254 340.105 506.254 338.632C506.254 337.159 505.342 335.966 504.217 335.966C503.091 335.966 502.179 337.159 502.179 338.632C502.179 340.105 503.091 341.299 504.217 341.299Z" fill="#3F3D56"/>
<path d="M504.217 338.039C505.342 338.039 506.254 336.845 506.254 335.373C506.254 333.9 505.342 332.706 504.217 332.706C503.091 332.706 502.179 333.9 502.179 335.373C502.179 336.845 503.091 338.039 504.217 338.039Z" fill="#3F3D56"/>
<path d="M504.217 334.774C505.342 334.774 506.254 333.58 506.254 332.108C506.254 330.635 505.342 329.441 504.217 329.441C503.091 329.441 502.179 330.635 502.179 332.108C502.179 333.58 503.091 334.774 504.217 334.774Z" fill="#3F3D56"/>
<path d="M504.217 331.515C505.342 331.515 506.254 330.321 506.254 328.848C506.254 327.375 505.342 326.182 504.217 326.182C503.091 326.182 502.179 327.375 502.179 328.848C502.179 330.321 503.091 331.515 504.217 331.515Z" fill="#3F3D56"/>
<path d="M504.217 328.25C505.342 328.25 506.254 327.056 506.254 325.583C506.254 324.111 505.342 322.917 504.217 322.917C503.091 322.917 502.179 324.111 502.179 325.583C502.179 327.056 503.091 328.25 504.217 328.25Z" fill="#3F3D56"/>
<path d="M504.217 324.99C505.342 324.99 506.254 323.796 506.254 322.324C506.254 320.851 505.342 319.657 504.217 319.657C503.091 319.657 502.179 320.851 502.179 322.324C502.179 323.796 503.091 324.99 504.217 324.99Z" fill="#3F3D56"/>
<path d="M504.217 321.731C505.342 321.731 506.254 320.537 506.254 319.064C506.254 317.592 505.342 316.398 504.217 316.398C503.091 316.398 502.179 317.592 502.179 319.064C502.179 320.537 503.091 321.731 504.217 321.731Z" fill="#3F3D56"/>
<path d="M496.583 296.742C496.305 296.387 496.052 296.013 495.825 295.623L501.179 294.741L495.387 294.787C494.266 292.343 494.199 289.546 495.201 287.051L502.974 291.079L495.805 285.813C497.627 282.633 501.077 280.742 504.738 280.914C508.399 281.086 511.656 283.293 513.172 286.629C514.689 289.966 514.21 293.871 511.932 296.742C512.369 297.292 512.742 297.889 513.046 298.521L506.094 302.132L513.511 299.646C513.851 300.655 514.025 301.712 514.026 302.776C514.029 304.968 513.291 307.096 511.932 308.816C515.08 312.819 514.623 318.568 510.882 322.023C507.142 325.478 501.374 325.478 497.633 322.023C493.893 318.568 493.436 312.819 496.583 308.816C493.798 305.273 493.798 300.285 496.583 296.742V296.742Z" fill="#5E81F4"/>
<path opacity="0.1" d="M514.026 302.777C514.029 304.968 513.291 307.096 511.932 308.816C515.08 312.819 514.623 318.568 510.882 322.023C507.142 325.478 501.374 325.478 497.633 322.023C493.893 318.568 493.436 312.819 496.583 308.816C495.273 307.155 514.026 301.683 514.026 302.777Z" fill="black"/>
<path d="M538.025 304.927C544.528 304.927 549.799 303.914 549.799 302.663C549.799 301.413 544.528 300.399 538.025 300.399C531.522 300.399 526.25 301.413 526.25 302.663C526.25 303.914 531.522 304.927 538.025 304.927Z" fill="#5E81F4"/>
<path d="M538.226 303.499C538.983 303.499 539.598 302.695 539.598 301.704C539.598 300.712 538.983 299.909 538.226 299.909C537.468 299.909 536.854 300.712 536.854 301.704C536.854 302.695 537.468 303.499 538.226 303.499Z" fill="#3F3D56"/>
<path d="M538.226 301.307C538.983 301.307 539.598 300.503 539.598 299.512C539.598 298.52 538.983 297.717 538.226 297.717C537.468 297.717 536.854 298.52 536.854 299.512C536.854 300.503 537.468 301.307 538.226 301.307Z" fill="#3F3D56"/>
<path d="M538.226 299.109C538.983 299.109 539.598 298.306 539.598 297.315C539.598 296.323 538.983 295.52 538.226 295.52C537.468 295.52 536.854 296.323 536.854 297.315C536.854 298.306 537.468 299.109 538.226 299.109Z" fill="#3F3D56"/>
<path d="M538.226 296.917C538.983 296.917 539.598 296.114 539.598 295.123C539.598 294.131 538.983 293.328 538.226 293.328C537.468 293.328 536.854 294.131 536.854 295.123C536.854 296.114 537.468 296.917 538.226 296.917Z" fill="#3F3D56"/>
<path d="M538.226 294.725C538.983 294.725 539.598 293.922 539.598 292.931C539.598 291.939 538.983 291.136 538.226 291.136C537.468 291.136 536.854 291.939 536.854 292.931C536.854 293.922 537.468 294.725 538.226 294.725Z" fill="#3F3D56"/>
<path d="M538.226 292.534C538.983 292.534 539.598 291.73 539.598 290.739C539.598 289.747 538.983 288.944 538.226 288.944C537.468 288.944 536.854 289.747 536.854 290.739C536.854 291.73 537.468 292.534 538.226 292.534Z" fill="#3F3D56"/>
<path d="M538.226 290.336C538.983 290.336 539.598 289.533 539.598 288.542C539.598 287.55 538.983 286.747 538.226 286.747C537.468 286.747 536.854 287.55 536.854 288.542C536.854 289.533 537.468 290.336 538.226 290.336Z" fill="#3F3D56"/>
<path d="M533.094 273.538C532.902 273.301 532.73 273.05 532.578 272.785L536.189 272.192L532.295 272.223C531.896 271.363 531.69 270.427 531.691 269.479C531.691 268.636 531.852 267.801 532.166 267.019L537.395 269.732L532.573 266.189C533.793 264.039 536.116 262.757 538.585 262.87C541.054 262.983 543.249 264.473 544.267 266.726C545.284 268.978 544.951 271.611 543.404 273.538C543.696 273.909 543.947 274.31 544.152 274.735L539.479 277.164L544.461 275.488C545.178 277.597 544.78 279.925 543.404 281.677C545.529 284.369 545.226 288.243 542.708 290.572C540.189 292.901 536.303 292.901 533.785 290.572C531.267 288.243 530.964 284.369 533.089 281.677C531.212 279.296 531.212 275.939 533.089 273.559L533.094 273.538Z" fill="#5E81F4"/>
<path opacity="0.1" d="M544.817 277.597C544.818 279.069 544.324 280.499 543.414 281.656C545.54 284.349 545.236 288.223 542.718 290.551C540.2 292.88 536.314 292.88 533.795 290.551C531.277 288.223 530.974 284.349 533.099 281.656C532.212 280.537 544.817 276.86 544.817 277.597Z" fill="black"/>
</g>
<defs>
<filter id="filter0_d_0_6905" x="-4.00019" y="0" width="598.029" height="367.995" filterUnits="userSpaceOnUse" color-interpolation-filters="sRGB">
<feFlood flood-opacity="0" result="BackgroundImageFix"/>
<feColorMatrix in="SourceAlpha" type="matrix" values="0 0 0 0 0 0 0 0 0 0 0 0 0 0 0 0 0 0 127 0" result="hardAlpha"/>
<feOffset dy="4"/>
<feGaussianBlur stdDeviation="2"/>
<feComposite in2="hardAlpha" operator="out"/>
<feColorMatrix type="matrix" values="0 0 0 0 0 0 0 0 0 0 0 0 0 0 0 0 0 0 0.25 0"/>
<feBlend mode="normal" in2="BackgroundImageFix" result="effect1_dropShadow_0_6905"/>
<feBlend mode="normal" in="SourceGraphic" in2="effect1_dropShadow_0_6905" result="shape"/>
</filter>
<linearGradient id="paint0_linear_0_6905" x1="464.468" y1="358.032" x2="464.468" y2="153.965" gradientUnits="userSpaceOnUse">
<stop stop-color="#808080" stop-opacity="0.25"/>
<stop offset="0.54" stop-color="#808080" stop-opacity="0.12"/>
<stop offset="1" stop-color="#808080" stop-opacity="0.1"/>
</linearGradient>
</defs>
</svg>
