<svg xmlns="http://www.w3.org/2000/svg" xmlns:xlink="http://www.w3.org/1999/xlink" width="30px" height="30px" viewBox="0 0 30 30" version="1.1">
    <defs>
    <filter id="alpha" filterUnits="objectBoundingBox" x="0%" y="0%" width="100%" height="100%">
      <feColorMatrix type="matrix" in="SourceGraphic" values="0 0 0 0 1 0 0 0 0 1 0 0 0 0 1 0 0 0 1 0"/>
    </filter>
    <mask id="mask0">
      <g filter="url(#alpha)">
    <rect x="0" y="0" width="30" height="30" style="fill:rgb(0%,0%,0%);fill-opacity:0.25098;stroke:none;"/>
      </g>
    </mask>
    <clipPath id="clip1">
      <rect x="0" y="0" width="30" height="30"/>
    </clipPath>
    <g id="surface5" clip-path="url(#clip1)">
    <path style=" stroke:none;fill-rule:nonzero;fill:rgb(100%,50.196078%,54.509804%);fill-opacity:1;" d="M 14.710938 24.445312 C 19.84375 24.445312 24.003906 20.285156 24.003906 15.152344 C 24.003906 10.023438 19.84375 5.863281 14.710938 5.863281 C 9.582031 5.863281 5.421875 10.023438 5.421875 15.152344 C 5.421875 20.285156 9.582031 24.445312 14.710938 24.445312 Z M 14.710938 24.445312 "/>
    </g>
    </defs>
    <g id="surface1">
    <rect x="0" y="0" width="30" height="30" style="fill:rgb(100%,100%,100%);fill-opacity:1;stroke:none;"/>
    <use xlink:href="#surface5" mask="url(#mask0)"/>
    <path style=" stroke:none;fill-rule:nonzero;fill:rgb(36.862745%,50.588235%,95.686275%);fill-opacity:1;" d="M 7.238281 28.480469 C 4.921875 28.484375 2.835938 27.089844 1.949219 24.953125 C 1.0625 22.820312 1.546875 20.359375 3.183594 18.71875 C 3.429688 18.476562 3.703125 18.257812 3.992188 18.0625 L 4.273438 17.882812 C 4.46875 17.765625 4.671875 17.660156 4.886719 17.558594 C 4.996094 17.511719 5.105469 17.460938 5.226562 17.417969 C 5.449219 17.335938 5.675781 17.269531 5.910156 17.21875 L 6.054688 17.179688 C 6.078125 17.167969 6.105469 17.164062 6.132812 17.15625 L 7.425781 17.0625 C 7.59375 17.0625 7.789062 17.09375 7.96875 17.121094 L 8.636719 17.121094 C 10.875 17.097656 13.011719 16.183594 14.566406 14.574219 C 16.132812 12.980469 16.988281 10.820312 16.945312 8.585938 L 16.945312 8.460938 C 16.933594 8.390625 16.925781 8.320312 16.921875 8.25 L 16.921875 8.078125 L 16.875 7.910156 C 16.875 7.808594 16.851562 7.699219 16.847656 7.59375 L 16.933594 6.394531 L 16.933594 6.34375 C 16.933594 6.3125 16.988281 6.152344 16.988281 6.152344 C 17.042969 5.90625 17.113281 5.664062 17.199219 5.425781 C 17.238281 5.316406 17.289062 5.207031 17.34375 5.097656 C 17.4375 4.882812 17.546875 4.675781 17.667969 4.472656 L 17.667969 4.441406 C 17.71875 4.355469 17.765625 4.273438 17.824219 4.191406 C 18.015625 3.90625 18.234375 3.636719 18.476562 3.390625 C 20.714844 1.148438 24.34375 1.144531 26.585938 3.382812 C 28.828125 5.621094 28.828125 9.25 26.59375 11.492188 C 26.34375 11.734375 26.074219 11.949219 25.785156 12.140625 C 25.699219 12.203125 25.621094 12.246094 25.546875 12.292969 L 25.5 12.320312 C 25.289062 12.445312 25.085938 12.554688 24.890625 12.644531 C 24.773438 12.695312 24.667969 12.746094 24.558594 12.785156 C 24.332031 12.867188 24.097656 12.9375 23.859375 12.992188 C 23.808594 13.003906 23.757812 13.015625 23.710938 13.03125 L 23.617188 13.058594 L 22.347656 13.144531 C 22.1875 13.144531 22.019531 13.117188 21.839844 13.09375 L 21.148438 13.09375 C 16.511719 13.164062 12.796875 16.960938 12.835938 21.601562 L 12.835938 21.726562 C 12.847656 21.792969 12.851562 21.855469 12.855469 21.921875 C 12.855469 21.988281 12.855469 22.054688 12.871094 22.121094 C 12.890625 22.1875 12.871094 22.242188 12.894531 22.308594 C 12.90625 22.402344 12.914062 22.5 12.917969 22.59375 L 12.824219 23.839844 C 12.820312 23.875 12.808594 23.90625 12.800781 23.9375 L 12.765625 24.050781 C 12.714844 24.296875 12.644531 24.542969 12.558594 24.777344 C 12.519531 24.886719 12.464844 25 12.414062 25.113281 C 12.320312 25.324219 12.21875 25.527344 12.105469 25.726562 C 12.046875 25.828125 11.992188 25.921875 11.929688 26.007812 C 11.738281 26.296875 11.519531 26.570312 11.273438 26.820312 C 10.203125 27.890625 8.75 28.492188 7.238281 28.492188 Z M 7.238281 28.480469 "/>
    <path style=" stroke:none;fill-rule:nonzero;fill:rgb(36.862745%,50.588235%,95.686275%);fill-opacity:1;" d="M 7.835938 29.082031 C 5.523438 29.082031 3.4375 27.691406 2.546875 25.554688 C 1.660156 23.417969 2.148438 20.957031 3.78125 19.320312 C 4.03125 19.078125 4.304688 18.855469 4.59375 18.660156 L 4.871094 18.484375 C 5.070312 18.367188 5.273438 18.261719 5.488281 18.160156 C 5.597656 18.113281 5.707031 18.0625 5.824219 18.019531 C 6.046875 17.9375 6.277344 17.871094 6.507812 17.820312 L 6.65625 17.777344 C 6.679688 17.769531 6.703125 17.761719 6.730469 17.757812 L 8.027344 17.660156 C 8.191406 17.660156 8.390625 17.695312 8.566406 17.71875 L 9.238281 17.71875 C 11.472656 17.699219 13.609375 16.78125 15.167969 15.175781 C 16.734375 13.578125 17.589844 11.421875 17.546875 9.1875 L 17.546875 9.0625 C 17.53125 8.992188 17.523438 8.921875 17.523438 8.851562 L 17.523438 8.675781 L 17.476562 8.507812 C 17.476562 8.40625 17.449219 8.296875 17.449219 8.191406 L 17.535156 6.992188 L 17.535156 6.941406 C 17.535156 6.914062 17.589844 6.753906 17.589844 6.753906 C 17.644531 6.507812 17.714844 6.261719 17.800781 6.027344 C 17.839844 5.917969 17.890625 5.808594 17.941406 5.699219 C 18.039062 5.484375 18.148438 5.273438 18.269531 5.074219 L 18.269531 5.039062 C 18.320312 4.957031 18.367188 4.875 18.425781 4.792969 C 18.617188 4.503906 18.835938 4.234375 19.078125 3.988281 C 21.3125 1.75 24.945312 1.746094 27.183594 3.980469 C 29.425781 6.21875 29.429688 9.851562 27.191406 12.089844 C 26.945312 12.332031 26.675781 12.550781 26.386719 12.742188 C 26.296875 12.804688 26.222656 12.847656 26.144531 12.894531 L 26.101562 12.921875 C 25.890625 13.042969 25.6875 13.152344 25.492188 13.242188 C 25.375 13.292969 25.269531 13.347656 25.160156 13.386719 C 24.929688 13.46875 24.695312 13.539062 24.457031 13.59375 C 24.40625 13.605469 24.359375 13.617188 24.308594 13.632812 L 24.21875 13.660156 L 22.949219 13.746094 C 22.789062 13.746094 22.617188 13.714844 22.441406 13.695312 L 21.75 13.695312 C 17.109375 13.761719 13.398438 17.5625 13.4375 22.199219 L 13.4375 22.328125 C 13.445312 22.390625 13.453125 22.457031 13.453125 22.519531 C 13.453125 22.589844 13.453125 22.65625 13.472656 22.71875 C 13.492188 22.785156 13.472656 22.84375 13.496094 22.910156 C 13.507812 23.003906 13.515625 23.097656 13.515625 23.191406 L 13.425781 24.441406 C 13.417969 24.472656 13.410156 24.507812 13.398438 24.539062 L 13.367188 24.652344 C 13.316406 24.898438 13.246094 25.140625 13.160156 25.378906 C 13.121094 25.488281 13.066406 25.601562 13.015625 25.714844 C 12.921875 25.921875 12.820312 26.128906 12.707031 26.328125 C 12.648438 26.429688 12.59375 26.519531 12.53125 26.609375 C 12.339844 26.898438 12.117188 27.171875 11.871094 27.417969 C 10.804688 28.492188 9.351562 29.09375 7.835938 29.089844 Z M 7.835938 29.082031 "/>
    <path style=" stroke:none;fill-rule:nonzero;fill:rgb(36.862745%,50.588235%,95.686275%);fill-opacity:0.658824;" d="M 1.855469 7.816406 C 1.851562 5.503906 3.242188 3.417969 5.378906 2.53125 C 7.515625 1.644531 9.976562 2.128906 11.613281 3.761719 C 11.859375 4.011719 12.078125 4.285156 12.273438 4.574219 L 12.453125 4.855469 C 12.566406 5.050781 12.671875 5.253906 12.773438 5.46875 C 12.820312 5.578125 12.871094 5.6875 12.917969 5.808594 C 13 6.03125 13.066406 6.257812 13.117188 6.492188 L 13.15625 6.636719 C 13.164062 6.660156 13.171875 6.6875 13.179688 6.710938 L 13.273438 8.007812 C 13.273438 8.175781 13.242188 8.371094 13.214844 8.550781 L 13.214844 9.21875 C 13.234375 11.457031 14.152344 13.59375 15.761719 15.148438 C 17.355469 16.714844 19.515625 17.570312 21.75 17.527344 L 21.871094 17.527344 C 21.941406 17.515625 22.011719 17.507812 22.082031 17.503906 L 22.257812 17.503906 L 22.425781 17.457031 C 22.527344 17.457031 22.636719 17.433594 22.742188 17.429688 L 23.941406 17.515625 L 23.992188 17.515625 C 24.023438 17.515625 24.183594 17.570312 24.183594 17.570312 C 24.429688 17.625 24.671875 17.695312 24.910156 17.78125 C 25.019531 17.820312 25.128906 17.871094 25.238281 17.921875 C 25.453125 18.019531 25.660156 18.128906 25.863281 18.25 L 25.894531 18.25 C 25.976562 18.300781 26.0625 18.347656 26.140625 18.40625 C 26.429688 18.597656 26.699219 18.816406 26.945312 19.058594 C 29.1875 21.296875 29.191406 24.925781 26.953125 27.167969 C 24.714844 29.410156 21.085938 29.410156 18.84375 27.175781 C 18.601562 26.925781 18.382812 26.65625 18.191406 26.367188 C 18.132812 26.28125 18.085938 26.203125 18.039062 26.128906 L 18.015625 26.082031 C 17.890625 25.871094 17.78125 25.667969 17.691406 25.472656 C 17.640625 25.355469 17.589844 25.25 17.550781 25.140625 C 17.464844 24.914062 17.398438 24.679688 17.34375 24.441406 C 17.332031 24.390625 17.316406 24.339844 17.300781 24.289062 L 17.277344 24.199219 L 17.1875 22.929688 C 17.1875 22.769531 17.21875 22.601562 17.242188 22.421875 L 17.242188 21.730469 C 17.171875 17.09375 13.375 13.378906 8.734375 13.417969 L 8.609375 13.417969 C 8.542969 13.429688 8.480469 13.433594 8.414062 13.4375 C 8.347656 13.4375 8.28125 13.4375 8.214844 13.453125 C 8.148438 13.472656 8.089844 13.453125 8.027344 13.476562 C 7.933594 13.488281 7.835938 13.496094 7.742188 13.496094 L 6.496094 13.40625 C 6.460938 13.402344 6.429688 13.390625 6.398438 13.382812 L 6.285156 13.347656 C 6.035156 13.296875 5.792969 13.226562 5.558594 13.140625 C 5.449219 13.101562 5.335938 13.046875 5.222656 12.996094 C 5.011719 12.902344 4.808594 12.800781 4.609375 12.6875 C 4.503906 12.628906 4.414062 12.574219 4.328125 12.511719 C 4.035156 12.320312 3.765625 12.097656 3.515625 11.855469 C 2.445312 10.785156 1.839844 9.332031 1.84375 7.816406 Z M 1.855469 7.816406 "/>
    </g>
</svg>