<svg width="30" height="30" viewBox="0 0 30 30" fill="none" xmlns="http://www.w3.org/2000/svg">
<path opacity="0.25" d="M14.684 25.3882C20.3283 25.3882 24.904 20.8126 24.904 15.1682C24.904 9.52389 20.3283 4.94824 14.684 4.94824C9.03964 4.94824 4.46399 9.52389 4.46399 15.1682C4.46399 20.8126 9.03964 25.3882 14.684 25.3882Z" fill="#5E81F4"/>
<path opacity="0.5" d="M6.292 13.2721C3.74885 13.2712 1.45629 11.7394 0.482135 9.39026C-0.492023 7.04108 0.0437865 4.33645 1.84 2.5361C4.29692 0.0804131 8.27908 0.0804131 10.736 2.5361C11.9163 3.71547 12.5794 5.31558 12.5794 6.9841C12.5794 8.65263 11.9163 10.2527 10.736 11.4321C9.56032 12.615 7.95979 13.2777 6.292 13.2721Z" fill="#5E81F4"/>
<path opacity="0.5" d="M23.308 29.8962C20.3057 29.8972 17.7208 27.7769 17.1348 24.8323C16.5488 21.8877 18.1248 18.9393 20.8988 17.7908C23.6728 16.6422 26.8718 17.6136 28.5388 20.1106C30.2058 22.6076 29.8764 25.9346 27.752 28.0562C26.5753 29.2376 24.9754 29.9 23.308 29.8962Z" fill="#5E81F4"/>
<path d="M6.46001 29.8283C3.9154 29.8307 1.61988 28.3001 0.643672 25.9502C-0.332538 23.6003 0.202762 20.8937 2.00001 19.0923C2.27476 18.8245 2.57332 18.5821 2.89201 18.3683L3.20001 18.1723C3.41601 18.0443 3.64001 17.9283 3.87601 17.8163C3.99601 17.7643 4.11601 17.7083 4.24801 17.6603C4.49359 17.5706 4.7448 17.4971 5.00001 17.4403L5.16001 17.3963C5.18745 17.3865 5.21551 17.3785 5.24401 17.3723L6.66801 17.2683C6.85201 17.2683 7.06801 17.3043 7.26401 17.3323H7.30801H7.49601H7.55601H7.61601H8.00001C10.4617 17.3095 12.8116 16.301 14.524 14.5323C16.2459 12.7772 17.1888 10.4027 17.14 7.94435V7.87635V7.80835C17.1259 7.73177 17.1179 7.65419 17.116 7.57635V7.38435L17.064 7.20035C17.064 7.08835 17.036 6.96835 17.032 6.85235L17.128 5.53235V5.50035V5.47635C17.128 5.44435 17.188 5.26835 17.188 5.26835C17.2488 4.99716 17.3263 4.72999 17.42 4.46835C17.464 4.34835 17.52 4.22835 17.576 4.10835C17.681 3.87148 17.8013 3.64167 17.936 3.42035V3.38435C17.992 3.29235 18.044 3.20035 18.108 3.11235C18.3181 2.79567 18.5579 2.49967 18.824 2.22835C21.285 -0.237051 25.2786 -0.240633 27.744 2.22035C30.2094 4.68133 30.213 8.67495 27.752 11.1403C27.4788 11.4059 27.1815 11.6456 26.864 11.8563C26.768 11.9243 26.684 11.9723 26.6 12.0243L26.552 12.0523C26.32 12.1883 26.096 12.3083 25.88 12.4083C25.752 12.4643 25.636 12.5203 25.516 12.5643C25.2636 12.656 25.0057 12.7322 24.744 12.7923C24.6886 12.8041 24.6339 12.8188 24.58 12.8363L24.48 12.8643L23.084 12.9603C22.908 12.9603 22.72 12.9283 22.524 12.9043H22.436H22.256H22.14H22.076H21.764C16.6623 12.9789 12.5777 17.1582 12.62 22.2603V22.3283V22.4003C12.6308 22.4706 12.6375 22.5414 12.64 22.6123C12.64 22.6883 12.64 22.7603 12.66 22.8323C12.68 22.9043 12.66 22.9683 12.684 23.0403C12.698 23.1438 12.706 23.248 12.708 23.3523L12.608 24.7243C12.6006 24.7608 12.5912 24.7969 12.58 24.8323L12.544 24.9563C12.4868 25.228 12.4106 25.4953 12.316 25.7563C12.272 25.8763 12.212 26.0003 12.156 26.1243C12.0543 26.3554 11.9409 26.581 11.816 26.8003C11.752 26.9123 11.692 27.0123 11.624 27.1083C11.4121 27.4284 11.1696 27.7271 10.9 28.0003C9.72429 29.1808 8.12605 29.8431 6.46001 29.8403V29.8283Z" fill="#5E81F4"/>
</svg>
