<svg viewBox="0 0 860 845" fill="none" xmlns="http://www.w3.org/2000/svg">
<path opacity="0.2" d="M318.48 332.197C295.928 350.578 274.08 371.146 260.352 397.095C240.164 435.245 240.475 483.235 261.193 518.61C278.734 548.603 308.315 568.133 333.621 591.301C364.801 619.833 390.027 654.605 413.901 689.965C426.73 708.957 439.666 728.653 458.403 741.373C484.42 759.03 519.495 760.776 550.126 749.44C580.757 738.103 606.978 714.701 625.806 686.888C635.826 672.088 644.115 655.362 645.31 637.769C646.575 619.154 639.832 601.16 641.232 582.545C642.529 565.295 650.738 548.979 660.332 534.311C672.858 515.159 688.021 497.868 705.373 482.949C725.041 466.059 747.191 452.584 766.922 435.831C786.653 419.078 804.513 397.867 810.69 372.632C816.5 348.91 811.394 324.587 805.196 301.734C795.105 264.392 781.991 227.935 765.984 192.722C755.237 169.124 742.964 145.85 724.99 127.785C690.629 93.2396 635.917 81.8874 588.667 99.4898C549.52 114.075 517.908 145.73 490.685 178.864C465.861 209.079 443.215 247.513 411.032 269.939C380.326 291.314 347.938 308.198 318.48 332.197Z" fill="#1B51E5"/>
<path opacity="0.2" d="M142.124 433.827C135.63 475.642 132.026 519.137 142.442 560.542C157.75 621.423 204.808 672.986 261.651 691.054C309.821 706.396 360.823 698.711 410.747 699.119C472.243 699.608 533.375 712.635 593.618 727.613C625.982 735.653 659.146 744.348 691.792 739.859C737.118 733.619 776.749 701.367 798.839 659.301C820.928 617.235 826.501 566.422 819.787 518.037C816.214 492.289 808.895 466.145 793.06 445.967C776.306 424.617 751.494 411.734 734.886 390.252C719.495 370.347 712.488 344.724 708.584 319.532C703.486 286.642 703.05 253.196 707.291 220.183C712.118 182.786 722.952 146.663 727.981 109.352C733.009 72.0415 731.674 31.7341 713.788 -1.55024C696.976 -32.8427 667.774 -54.1613 638.824 -72.8267C591.557 -103.362 541.882 -130 490.29 -152.477C455.694 -167.52 419.763 -180.729 382.739 -182.759C311.948 -186.65 241.728 -145.666 207.766 -80.6527C179.63 -26.7869 176.261 38.1926 179.078 100.499C181.647 157.317 194.574 220.897 181.603 276.457C169.205 329.446 150.617 379.218 142.124 433.827Z" fill="#1B51E5"/>
<path d="M358 633C358 633 350.579 591.197 323.033 570.482C311.476 561.788 303.019 549.966 299.325 536.503C297.587 530.124 296.473 523.592 296 517" stroke="#535461" stroke-width="2"/>
<path d="M278.948 504.204C281.202 508.766 296.26 518 296.26 518C296.26 518 298.153 500.749 295.883 496.182C293.613 491.614 287.996 489.709 283.309 491.923C278.622 494.137 276.678 499.637 278.948 504.204Z" fill="#1B51E5"/>
<path d="M277.566 535.656C282.06 538.223 300 537.995 300 537.995C300 537.995 291.906 522.866 287.429 520.299C282.953 517.732 277.1 519.087 274.381 523.327C271.662 527.568 273.079 533.089 277.566 535.656Z" fill="#1B51E5"/>
<path d="M300.385 577C305.631 577.074 321 568.3 321 568.3C321 568.3 305.927 559.081 300.675 559.001C295.423 558.921 291.104 562.892 291.002 567.861C290.899 572.829 295.133 576.908 300.385 577Z" fill="#1B51E5"/>
<path d="M324.848 605.907C330.069 606.829 347 600.611 347 600.611C347 600.611 333.619 589.058 328.404 588.153C323.189 587.248 318.146 590.443 317.167 595.367C316.187 600.29 319.622 604.991 324.848 605.907Z" fill="#1B51E5"/>
<path d="M318.426 529.975C316.628 534.61 302.445 545 302.445 545C302.445 545 298.689 528.52 300.487 523.885C302.285 519.25 307.759 516.857 312.707 518.537C317.656 520.218 320.224 525.345 318.426 529.975Z" fill="#1B51E5"/>
<path d="M347.04 563.819C343.845 567.867 327 574 327 574C327 574 328.712 556.681 331.884 552.639C335.208 548.571 341.03 547.808 345.248 550.886C347.244 552.294 348.574 554.493 348.914 556.95C349.254 559.407 348.575 561.898 347.04 563.819Z" fill="#1B51E5"/>
<path d="M369.881 600.089C367.368 604.464 351.391 613 351.391 613C351.391 613 349.987 596.172 352.5 591.796C355.013 587.421 360.938 585.732 365.741 588.022C370.544 590.311 372.388 595.713 369.881 600.089Z" fill="#1B51E5"/>
<path opacity="0.25" d="M278.948 504.204C281.202 508.766 296.26 518 296.26 518C296.26 518 298.153 500.749 295.883 496.182C293.613 491.614 287.996 489.709 283.309 491.923C278.622 494.137 276.678 499.637 278.948 504.204Z" fill="black"/>
<path opacity="0.25" d="M277.566 535.656C282.06 538.223 300 537.995 300 537.995C300 537.995 291.906 522.866 287.429 520.299C282.953 517.732 277.1 519.087 274.381 523.327C271.662 527.568 273.079 533.089 277.566 535.656Z" fill="black"/>
<path opacity="0.25" d="M300.385 577C305.631 577.074 321 568.3 321 568.3C321 568.3 305.927 559.081 300.675 559.001C295.423 558.921 291.104 562.892 291.002 567.861C290.899 572.829 295.133 576.908 300.385 577Z" fill="black"/>
<path opacity="0.25" d="M324.848 605.907C330.069 606.829 347 600.611 347 600.611C347 600.611 333.619 589.058 328.404 588.153C323.189 587.248 318.146 590.443 317.167 595.367C316.187 600.29 319.622 604.991 324.848 605.907Z" fill="black"/>
<path opacity="0.25" d="M318.426 529.975C316.628 534.61 302.445 545 302.445 545C302.445 545 298.689 528.52 300.487 523.885C302.285 519.25 307.759 516.857 312.707 518.537C317.656 520.218 320.224 525.345 318.426 529.975Z" fill="black"/>
<path opacity="0.25" d="M347.04 563.819C343.845 567.867 327 574 327 574C327 574 328.712 556.681 331.884 552.639C335.208 548.571 341.03 547.808 345.248 550.886C347.244 552.294 348.574 554.493 348.914 556.95C349.254 559.407 348.575 561.898 347.04 563.819Z" fill="black"/>
<path opacity="0.25" d="M369.881 600.089C367.368 604.464 351.391 613 351.391 613C351.391 613 349.987 596.172 352.5 591.796C355.013 587.421 360.938 585.732 365.741 588.022C370.544 590.311 372.388 595.713 369.881 600.089Z" fill="black"/>
<path d="M357.124 632C357.124 632 368.604 590.842 352.05 561.339C345.104 548.962 342.424 534.899 344.911 521.145C346.105 514.606 347.942 508.194 350.396 502" stroke="#535461" stroke-width="2"/>
<path d="M341.006 484.189C341.188 489.087 351.204 503 351.204 503C351.204 503 360.179 488.479 359.997 483.575C359.815 478.671 355.419 474.836 350.175 475.005C344.931 475.174 340.818 479.285 341.006 484.189Z" fill="#1B51E5"/>
<path d="M325.685 512.209C328.66 516.298 345 523 345 523C345 523 344.098 505.965 341.123 501.87C338.002 497.755 332.29 496.779 328.017 499.63C325.994 500.923 324.591 503.014 324.149 505.402C323.706 507.789 324.263 510.256 325.685 512.209Z" fill="#1B51E5"/>
<path d="M328.502 559.089C333.253 561.162 351 559.049 351 559.049C351 559.049 341.197 544.899 336.445 542.827C331.694 540.754 326.069 542.713 323.875 547.205C321.681 551.696 323.756 557.016 328.502 559.089Z" fill="#1B51E5"/>
<path d="M338.22 594.434C342.652 597.253 361 598 361 598C361 598 353.675 582.417 349.249 579.604C344.825 576.78 338.928 577.775 335.722 581.886C334.255 583.843 333.69 586.313 334.164 588.697C334.639 591.08 336.11 593.161 338.22 594.434Z" fill="#1B51E5"/>
<path d="M365.321 523.25C361.633 526.837 344 531 344 531C344 531 347.74 514.352 351.422 510.766C355.201 507.177 361.128 507.068 365.039 510.515C366.871 512.115 367.944 514.401 367.998 516.821C368.052 519.241 367.081 521.572 365.321 523.25Z" fill="#1B51E5"/>
<path d="M376.961 564.338C372.268 566.793 354 565.803 354 565.803C354 565.803 362.951 550.57 367.645 548.132C372.338 545.695 378.232 547.318 380.802 551.794C383.372 556.27 381.678 561.883 376.961 564.338Z" fill="#1B51E5"/>
<path d="M382.346 606.005C378.157 609.089 360 611 360 611C360 611 366.118 595.031 370.307 591.948C374.53 588.871 380.453 589.502 383.905 593.398C385.495 595.236 386.232 597.643 385.936 600.037C385.64 602.431 384.338 604.595 382.346 606.005Z" fill="#1B51E5"/>
<path fill-rule="evenodd" clip-rule="evenodd" d="M827.283 386.668C828.011 388.328 829.281 391.225 829.033 391.903C828.895 392.282 829.316 393.175 829.803 394.21C830.525 395.74 831.392 397.58 830.808 398.52C830.029 399.898 829.338 401.323 828.741 402.789C828.741 402.789 824.7 410.472 822.639 411.928C820.578 413.383 811.127 425.592 811.127 425.592C811.127 425.592 800.989 437.212 800.989 440.799C800.989 440.799 800.417 439.848 799.472 438.421L800.984 464.032C800.984 464.032 797.463 467.017 796.69 467.361C793.084 469.836 786.982 465.911 786.037 465.138C785.539 464.725 782.162 464.834 779.168 465.023C779.832 478.883 777.021 481.542 777.021 481.542L776.684 493.574C776.684 493.574 777.119 511.943 775.825 514.842C774.531 517.741 774.531 529.446 774.531 529.446C774.531 529.446 775.39 534.992 774.445 536.19C773.501 537.387 774.194 541.839 774.88 544.131C775.567 546.423 774.961 552.152 774.961 552.152L774.789 584.438C774.789 584.438 773.85 592.804 772.642 594.007C771.937 594.724 771.674 595.768 771.955 596.734C771.955 596.734 770.925 601.513 771.183 602.372C771.44 603.231 771.961 605.191 769.98 606.131C768 607.07 768.515 610.061 768.515 610.061C768.305 610.012 768.093 609.974 767.88 609.946C767.937 610.296 768.005 610.657 768.086 611.001C768.184 611.641 768.418 612.252 768.773 612.794C769.637 613.734 770.152 617.916 770.152 617.916C770.152 617.916 773.243 624.064 772.9 625.433C772.648 626.453 772.339 628.287 772.196 629.152C772.127 629.444 772.127 629.622 772.127 629.622C772.127 629.622 770.41 633.38 760.873 634.744C751.336 636.108 751.336 631.581 751.336 631.581C751.336 631.581 751.37 631.094 751.433 630.367C751.461 630.071 751.492 629.735 751.525 629.374C751.716 627.3 751.98 624.419 752.195 623.726C752.51 622.614 751.937 617.744 751.937 617.744L751.834 612.656V611.642C750.947 611.82 750.414 611.94 750.414 611.94C748.964 608.966 747.701 605.904 746.631 602.773C746.167 601.492 746.278 600.072 746.936 598.879C747.594 597.686 748.735 596.835 750.065 596.545C751.874 596.27 748.777 593.107 748.777 593.107C748.777 593.107 749.121 592.678 748.262 589.607C747.429 586.628 748.374 579.142 748.666 576.824L748.691 576.623C748.949 574.572 750.237 564.666 750.237 564.666C750.237 564.666 749.55 552.107 750.065 551.597C750.58 551.087 752.309 546.131 751.445 544.509C750.58 542.888 749.207 532.214 749.207 531.612C749.207 531.01 748.09 517.174 748.09 517.174C748.09 517.174 747.071 507.577 747.329 505.525C747.587 503.474 746.642 495.871 746.642 495.871C746.642 489.529 742.95 482.693 742.95 482.693L742.858 482.94L734.844 503.795C734.844 503.795 733.585 510.115 732.44 513.701C731.726 516.15 731.159 518.639 730.74 521.156L730.665 521.608C730.654 521.67 730.642 521.728 730.631 521.784C730.606 521.902 730.585 522.005 730.585 522.095L730.534 522.433C730.534 522.433 731.135 526.965 730.19 528.415C729.246 529.865 728.215 534.219 728.215 535.416C728.215 536.614 728.295 541.226 728.295 541.226C728.295 541.226 728.673 550.365 727.723 551.39C726.773 552.416 727.288 553.27 727.288 553.27C727.288 553.27 728.799 560.145 728.112 561.939C727.425 563.732 727.94 567.914 727.94 567.914C727.94 567.914 726.572 581.155 726.395 581.837C726.217 582.519 725.267 587.825 726.303 588.249C727.339 588.673 729.309 591.234 729.309 591.234C729.309 591.234 729.744 602.412 728.198 603.266C726.652 604.119 727.505 608.48 727.505 608.48L726.847 608.6C726.91 608.915 726.979 609.253 727.036 609.591C727.28 610.596 727.382 611.629 727.339 612.662C727.232 613.426 727.45 614.199 727.94 614.794L728.324 618.283L728.456 619.498C728.456 619.498 721.243 624.19 717.631 623.508C714.019 622.826 710.321 624.706 710.321 624.706C707.83 627.408 704.697 629.436 701.213 630.601C695.369 632.549 687.211 631.793 682.569 630.258C680.371 629.53 680.199 628.579 681.258 627.433C682.373 626.208 684.858 624.74 687.78 623.014C687.933 622.923 688.087 622.832 688.242 622.741C694.172 619.24 700.526 612.318 700.526 612.318C700.526 612.318 700.635 610.611 701.671 609.843C702.298 609.298 702.873 608.696 703.389 608.044L703.887 607.471L703.314 607.385L704.173 604.578C704.121 604.675 703.555 605.586 703.142 602.091C702.719 598.419 706.325 600.212 706.325 600.212C706.325 600.212 709.159 600.905 704.608 596.459C700.057 592.013 702.261 587.487 702.547 587.487C702.833 587.487 703.406 580.915 703.406 580.915C703.406 580.915 704.173 576.984 703.577 573.908C702.982 570.831 702.467 561.268 702.467 561.268C702.467 561.268 702.891 554.015 702.118 551.362C701.41 548.931 702.431 544.717 702.806 543.173C702.84 543.031 702.869 542.912 702.891 542.819C703.148 541.707 702.118 531.543 702.118 531.543C702.118 531.543 702.982 526.771 702.467 523.264C701.952 519.758 702.982 506.86 702.982 506.86L704.579 492.044C704.579 492.044 705.695 487.432 705.524 485.552C705.352 483.673 706.812 477.095 706.812 477.095C706.726 475.695 706.961 474.294 707.499 472.999C707.845 472.147 708.078 471.253 708.191 470.34C705.713 468.501 704.236 465.224 704.236 465.224C704.045 464.899 703.872 464.564 703.715 464.221L705.089 458.417C705.089 458.417 705.175 450.384 706.033 448.849C706.892 447.313 707.407 442.873 707.407 442.873C707.407 442.873 708.987 433.087 709.262 430.978C708.961 430.924 708.653 430.924 708.352 430.978C708.352 430.978 708.432 430.577 708.569 429.907C708.324 429.889 708.077 429.904 707.836 429.953C707.836 429.953 711.534 411.4 713.509 407.229C715.484 403.058 715.141 391.599 715.141 391.599C715.141 391.599 711.271 392.797 711.099 393.822C710.928 394.848 705.947 401.763 705.947 401.763C705.947 401.763 704.808 405.952 699.651 408.685C694.493 411.418 688.826 408.169 687.967 407.063C687.194 406.06 672.168 399.466 669.157 398.154L668.63 397.925L668.664 397.747V397.655L668.092 397.415L668.664 397.592C668.745 397.226 668.905 396.567 669.145 395.707C669.172 395.677 669.173 395.659 669.176 395.631C669.177 395.61 669.179 395.585 669.191 395.547C669.204 395.505 669.212 395.474 669.222 395.439C669.233 395.396 669.246 395.347 669.271 395.266C669.284 395.225 669.297 395.183 669.31 395.141C669.345 395.029 669.381 394.913 669.414 394.796L669.466 394.624C669.485 394.564 669.505 394.504 669.526 394.443C669.559 394.342 669.594 394.239 669.626 394.132C669.655 394.109 669.655 394.057 669.655 394.057C669.912 393.266 670.227 392.401 670.599 391.507L668.39 388.643L668.126 388.448L657.851 378.839C656.022 377.133 654.988 374.739 655 372.237C655.012 369.734 656.068 367.35 657.914 365.661C658.888 364.763 659.323 365.934 659.469 366.328C659.487 366.378 659.501 366.416 659.511 366.435C665.957 367.226 676.93 377.539 676.93 377.539L678.281 379.04L678.785 379.613C678.897 379.152 678.848 378.667 678.648 378.238C678.339 377.779 680.491 379.785 681.51 380.747C681.509 380.736 681.509 380.724 681.51 380.713C681.521 380.737 681.535 380.76 681.55 380.782L682.025 381.229C683.571 383.962 690.36 385.497 690.36 385.497L693.279 383.704C693.537 380.375 698.265 376.444 698.265 376.444C698.265 376.444 699.662 374.903 700.412 371.574C701.162 368.245 704.024 368.669 704.024 368.669L704.367 363.805C704.367 363.805 706.915 362.43 706.657 359.703C706.4 356.975 709.405 351.681 709.405 351.681C709.405 351.681 710.756 351.171 711.036 345.786C711.317 340.4 713.899 340.056 713.899 340.056L721.203 339.632C721.804 337.581 737.443 335.106 737.443 335.106C737.443 335.106 740.191 334.074 741.65 331.857C743.11 329.64 744.661 330.408 744.661 330.408L744.89 330.631C744.882 330.555 744.874 330.49 744.864 330.42C744.855 330.347 744.845 330.269 744.833 330.167C744.825 330.091 744.812 330.017 744.799 329.945C744.779 329.825 744.759 329.708 744.759 329.594C737.864 326.166 733.5 319.131 733.487 311.426V311.133V310.612C732.934 310.872 732.359 311.085 731.77 311.248C731.627 311.288 731.478 311.322 731.335 311.351C730.76 311.473 730.171 311.52 729.583 311.489C729.523 311.484 729.463 311.475 729.403 311.467C729.318 311.455 729.233 311.443 729.148 311.443C728.894 311.407 728.644 311.352 728.398 311.277L728.278 311.248C728.364 310.973 728.461 310.709 728.559 310.446C729.405 308.127 730.725 306.009 732.434 304.229C732.832 303.88 733.157 303.456 733.39 302.98C733.545 302.56 733.571 302.103 733.465 301.668C733.271 300.981 733.004 300.316 732.669 299.686L732.6 299.525L732.514 299.33C732.503 299.301 732.492 299.273 732.48 299.244C732.44 299.143 732.401 299.044 732.365 298.941C732.363 298.918 732.363 298.895 732.365 298.872C732.358 298.851 732.351 298.828 732.342 298.804C732.304 298.689 732.257 298.55 732.257 298.517V298.397C732.224 298.255 732.199 298.111 732.182 297.967C732.171 297.814 732.171 297.661 732.182 297.508C732.182 297.49 732.181 297.473 732.18 297.457C732.177 297.423 732.175 297.388 732.182 297.331C732.194 297.245 732.211 297.147 732.228 297.073C732.242 297.013 732.26 296.949 732.275 296.893C732.278 296.88 732.282 296.867 732.285 296.855C732.292 296.832 732.301 296.809 732.311 296.786C732.327 296.749 732.343 296.711 732.343 296.672C732.67 295.82 733.217 295.071 733.928 294.5C734.372 294.131 734.852 293.812 735.33 293.492C735.944 293.083 736.557 292.674 737.094 292.163C738.18 291.13 738.901 289.748 739.62 288.37C740.413 286.849 741.204 285.333 742.48 284.296C744.593 282.577 747.501 282.606 750.128 282.973C750.498 283.024 750.87 283.081 751.242 283.137C753.516 283.482 755.827 283.833 758.011 283.139C759.013 282.817 759.939 282.288 760.865 281.757C761.69 281.285 762.516 280.812 763.397 280.486C767.313 279.025 772.076 280.967 774.096 284.852C774.778 286.172 775.158 287.617 775.537 289.062C775.829 290.175 776.121 291.289 776.552 292.346C776.876 293.142 777.275 293.899 777.673 294.656C778.077 295.423 778.482 296.19 778.807 296.999C779.553 298.913 779.845 300.974 779.66 303.02C779.632 303.381 779.58 303.736 779.523 304.092C779.516 304.136 779.506 304.18 779.495 304.224C779.477 304.294 779.46 304.365 779.46 304.435C779.408 304.693 779.351 304.951 779.288 305.203L779.202 305.524C779.105 305.874 778.985 306.246 778.865 306.561C778.744 306.876 778.613 307.191 778.47 307.495C778.154 308.177 777.798 308.843 777.443 309.508C776.682 310.932 775.924 312.35 775.573 313.912C775.452 314.509 775.362 315.111 775.304 315.717C775.297 315.764 775.289 315.812 775.281 315.859C775.261 315.972 775.241 316.087 775.241 316.204C775.241 316.227 775.243 316.243 775.245 316.26C775.249 316.293 775.253 316.328 775.241 316.416C775.224 316.548 775.195 316.737 775.184 316.806C775.179 316.837 775.175 316.857 775.17 316.883C775.164 316.914 775.156 316.951 775.144 317.023C775.138 317.058 775.132 317.096 775.127 317.136C775.11 317.248 775.093 317.366 775.064 317.413C775.024 317.476 775.024 317.545 775.024 317.608C774.978 317.808 774.921 317.997 774.858 318.181C774.559 319.12 773.903 319.904 773.031 320.364C773.007 320.373 772.982 320.386 772.957 320.399C772.907 320.424 772.858 320.45 772.808 320.45C772.623 320.507 772.43 320.538 772.236 320.541C772.223 320.568 772.21 320.595 772.197 320.622C772.129 320.763 772.061 320.906 771.984 321.045C771.121 322.647 770.046 324.125 768.79 325.44C768.991 326.208 769.252 326.958 769.568 327.686L769.603 327.749C769.625 327.785 769.658 327.839 769.7 327.908C770.184 328.701 771.884 331.485 772.837 332.212L776.523 335.031C776.523 335.031 780.221 336.75 781.509 336.75C782.797 336.75 789.758 338.543 790.623 339.483C791.034 339.812 791.55 339.983 792.077 339.964C792.683 339.926 793.287 339.851 793.885 339.741L794.229 339.85C794.635 339.793 794.916 339.741 794.916 339.741C794.916 339.741 797.744 340.704 800.24 341.276C802.735 341.849 803.937 345.958 803.422 347.579C803.003 349.22 803.46 350.962 804.63 352.186C805.66 353.211 806.176 356.54 806.176 356.54C807.438 356.951 808.488 357.842 809.101 359.021C809.696 360.316 809.736 362.688 809.736 364.017C809.702 364.607 809.702 364.997 809.702 364.997C809.713 364.997 814.86 365.088 815.375 369.357C815.89 373.625 820.613 375.591 820.613 375.591C820.613 375.591 824.139 379.091 824.139 380.713C824.139 381.872 825.499 383.687 826.275 384.722C826.584 385.135 826.801 385.424 826.801 385.497C826.801 385.569 827.001 386.026 827.283 386.668ZM798.78 408.312C798.843 407.017 804.281 401.122 806.857 400.864C806.857 400.864 807.269 397.392 806.153 397.306C805.037 397.22 804.092 394.487 804.092 394.487C804.092 394.487 798.694 388.167 796.977 382.81L796.885 382.942C796.885 382.942 797.062 389.857 796.542 391.393C796.244 392.287 796.902 401.483 797.509 409.028C797.532 409.329 797.556 409.628 797.58 409.923C797.599 410.152 797.617 410.379 797.635 410.604C798.167 409.894 798.74 408.988 798.78 408.312Z" fill="url(#paint0_linear_326_24334)"/>
<path d="M669 398.903C669 398.903 672.195 382.088 682.482 382L690 397.514L684.988 400.983C684.988 400.983 674.1 401.329 669 398.903Z" fill="#65617D"/>
<path opacity="0.1" d="M690 397.511L684.988 400.982C684.988 400.982 677.324 401.229 671.845 399.874C670.868 399.642 669.915 399.316 669 398.901C669 398.901 669 398.807 669.058 398.631C669.058 398.631 669.058 398.59 669.058 398.566C669.53 396.454 670.181 394.386 671.004 392.386C671.325 391.629 671.681 390.849 672.067 390.069C673.574 387.137 675.688 384.311 678.586 382.897C679.657 382.369 680.823 382.064 682.015 382H682.318H682.47L682.634 382.346L685.175 387.589L690 397.511Z" fill="black"/>
<path d="M773.777 466.237C773.777 466.237 784.473 465.219 785.41 465.984C786.346 466.749 792.423 470.661 796.019 468.193C799.615 465.725 797.216 457.131 797.216 456.791C797.216 456.452 796.875 444.278 796.875 444.278L790.457 435.684L782.42 420.622L766 419L766.428 442.921L766.341 455.175L773.777 466.237Z" fill="#65617D"/>
<path opacity="0.1" d="M773.777 466.237C773.777 466.237 784.473 465.219 785.41 465.984C786.346 466.749 792.423 470.661 796.019 468.193C799.615 465.725 797.216 457.131 797.216 456.791C797.216 456.452 796.875 444.278 796.875 444.278L790.457 435.684L782.42 420.622L766 419L766.428 442.921L766.341 455.175L773.777 466.237Z" fill="black"/>
<path d="M680 382.535C680 382.535 679.157 392.835 672.759 393C672.759 393 670.943 391.904 668.501 390.078C662.877 385.861 653.956 377.753 656.421 370.209C659.956 359.407 677.137 379.339 677.137 379.339L678.452 380.823L680 382.535Z" fill="#FBBEBE"/>
<path opacity="0.1" d="M680 382.687C680 382.687 679.16 392.837 672.783 393C672.783 393 670.973 391.92 668.539 390.121L668 389.429C669.083 389.989 670.275 390.307 671.495 390.363C673.459 390.44 675.266 389.305 676.034 387.512C676.705 386.207 677.294 384.862 677.799 383.485C678.109 382.683 678.33 381.85 678.457 381L680 382.687Z" fill="black"/>
<path d="M677.565 401L676.157 399.163L671.415 392.965L669 389.804C670.061 390.368 671.231 390.687 672.428 390.74C674.003 390.779 675.767 390.176 676.88 387.889C677.537 386.579 678.115 385.23 678.611 383.849C679.39 381.595 679.379 380.468 679.101 380.057C678.822 379.646 680.848 381.567 681.822 382.502L681.855 382.536L682.312 382.97L682.479 383.308L684.866 388.137C684.866 388.137 684.866 388.204 684.866 388.339C685.1 389.889 685.907 399.62 677.565 401Z" fill="#E7EFFD"/>
<path d="M728 618.652C728 618.652 720.906 623.367 717.361 622.706C713.817 622.046 710.181 623.911 710.181 623.911C707.737 626.619 704.656 628.654 701.226 629.825C695.519 631.794 687.471 631.018 682.911 629.477C680.754 628.747 680.577 627.809 681.616 626.645C682.757 625.347 685.417 623.789 688.465 621.936C694.292 618.426 700.536 611.51 700.536 611.51C700.536 611.51 700.621 609.773 701.637 609.031C702.263 608.485 702.836 607.88 703.35 607.224C704.257 606.135 705.107 605 705.107 605L725.974 605.614C725.974 605.614 726.328 607.137 726.607 608.695C726.846 609.706 726.943 610.745 726.898 611.782C726.79 612.544 726.997 613.318 727.469 613.92L727.846 617.395L728 618.652Z" fill="#65617D"/>
<path d="M771.974 624.607C771.726 625.61 771.409 627.406 771.291 628.251L771.217 628.715C771.217 628.715 769.523 632.404 760.275 633.747C751.028 635.09 751 630.642 751 630.642C751 630.642 751.034 630.166 751.09 629.446C751.254 627.486 751.587 623.728 751.836 622.929C752.164 621.841 751.582 617.059 751.582 617.059L751.486 612.066L751.412 608.598L766.794 607C766.889 608.154 767.055 609.301 767.291 610.434C767.385 611.063 767.615 611.665 767.964 612.196C768.8 613.12 769.297 617.229 769.297 617.229C769.297 617.229 772.308 623.264 771.974 624.607Z" fill="#65617D"/>
<path opacity="0.1" d="M726.376 605.671C726.376 605.671 726.725 607.153 727 608.67C724.779 609.081 715.076 610.767 712.652 609.589C709.903 608.253 704 607.503 704 607.503L704.096 607.165C704.989 606.105 705.827 605 705.827 605L726.376 605.671Z" fill="black"/>
<path opacity="0.1" d="M767 610.389C763.075 609.735 754.487 611.318 751.074 612L751 608.577L766.488 607C766.587 608.139 766.758 609.271 767 610.389Z" fill="black"/>
<path d="M775.766 482.422L775.431 494.387C775.431 494.387 775.852 512.632 774.588 515.518C773.324 518.403 773.324 530.029 773.324 530.029C773.324 530.029 774.167 535.541 773.239 536.729C772.311 537.916 772.988 542.327 773.66 544.621C774.332 546.915 773.745 552.6 773.745 552.6L773.575 584.674C773.575 584.674 772.652 592.986 771.468 594.179C770.777 594.896 770.52 595.932 770.796 596.892C770.796 596.892 769.789 601.641 770.039 602.496C770.29 603.35 770.796 605.295 768.861 606.224C766.925 607.153 767.426 610.13 767.426 610.13C762.797 609.023 749.658 612 749.658 612C748.238 609.051 747 606.017 745.951 602.914C745.493 601.644 745.601 600.236 746.246 599.051C746.891 597.866 748.012 597.019 749.322 596.725C751.087 596.467 748.058 593.33 748.058 593.33C748.058 593.33 748.394 592.905 747.551 589.854C746.708 586.802 747.716 578.956 747.972 576.948C748.229 574.941 749.487 565.069 749.487 565.069C749.487 565.069 748.815 552.6 749.322 552.089C749.828 551.579 751.508 546.657 750.671 545.046C749.834 543.434 748.473 532.828 748.473 532.232C748.473 531.635 747.386 517.892 747.386 517.892C747.386 517.892 746.373 508.302 746.629 506.266C746.885 504.229 745.951 496.681 745.951 496.681C745.951 490.372 742.33 483.609 742.33 483.609L742.239 483.856L734.434 504.574C734.434 504.574 733.17 510.849 732.077 514.411C731.386 516.833 730.836 519.294 730.432 521.781L730.358 522.234C730.358 522.423 730.301 522.584 730.284 522.71L730.232 523.054C730.232 523.054 730.802 527.551 729.891 528.997C728.98 530.442 727.955 534.767 727.955 535.954C727.955 537.142 728.041 541.725 728.041 541.725C728.041 541.725 728.376 550.804 727.471 551.825C726.566 552.846 727.044 553.69 727.044 553.69C727.044 553.69 728.559 560.573 727.887 562.345C727.215 564.117 727.722 568.281 727.722 568.281C727.722 568.281 726.372 581.439 726.207 582.116C726.042 582.793 725.109 588.059 726.122 588.483C727.135 588.908 729.065 591.449 729.065 591.449C729.065 591.449 729.492 602.57 727.972 603.413C726.452 604.257 727.295 608.576 727.295 608.576C727.295 608.576 715.089 610.95 712.31 609.591C709.532 608.232 703.549 607.469 703.549 607.469L704.385 604.681C704.334 604.779 703.776 605.685 703.378 602.209C702.962 598.561 706.498 600.339 706.498 600.339C706.498 600.339 709.276 601.022 704.79 596.611C700.303 592.2 702.512 587.697 702.769 587.697C703.025 587.697 703.617 581.17 703.617 581.17C703.617 581.17 704.374 577.264 703.782 574.207C703.19 571.149 702.689 561.645 702.689 561.645C702.689 561.645 703.11 554.435 702.353 551.808C701.596 549.181 702.854 544.42 703.11 543.319C703.366 542.218 702.324 532.146 702.324 532.146C702.324 532.146 703.167 527.396 702.66 523.921C702.154 520.445 703.167 507.625 703.167 507.625L704.681 492.861C704.681 492.861 705.775 488.272 705.609 486.408C705.444 484.544 706.879 478.011 706.879 478.011C706.793 476.62 707.023 475.227 707.551 473.938C708.393 472.218 708.729 466.642 708.729 466.642L716.819 447.972L720.805 431.51L774.281 431C774.281 431 774.48 432.428 774.804 435.015C775.129 437.602 775.584 441.445 776.091 446.188C776.558 450.496 777.07 455.561 777.565 461.199C779.182 479.198 775.766 482.422 775.766 482.422Z" fill="#3F3D56"/>
<path d="M772 333.727L759.298 347C759.298 347 743 340.613 744.717 338.434C745.378 337.588 745.297 334.92 744.891 331.979C744.311 327.324 743 321.971 743 321.971C743 321.971 771.484 317.429 769.1 322.135C768.224 323.838 768.375 325.859 768.92 327.716C769.61 329.868 770.65 331.898 772 333.727Z" fill="#FBBEBE"/>
<path opacity="0.1" d="M768.858 322.13C767.989 323.826 767.575 324.007 768.116 325.855C764.424 329.738 759.727 334 753.885 334C750.758 334.005 747.674 333.294 744.874 331.926C744.299 327.291 743 321.96 743 321.96C743 321.96 771.238 317.439 768.858 322.13Z" fill="black"/>
<path d="M774 313.238C773.816 324.206 764.916 333 754 333C743.084 333 734.184 324.206 734 313.238C734 313.141 734 313.044 734 312.953C734.078 301.855 743.095 292.922 754.139 293.001C765.183 293.079 774.073 302.14 773.994 313.238H774Z" fill="#FBBEBE"/>
<path opacity="0.1" d="M777 445.693C774.318 445.693 765.378 445.787 755.385 445.935H755.264L751.966 445.989H751.862C740.016 446.17 728.336 443.966 723.656 444.383C713.698 445.271 727.237 435.609 727.237 435.609C734.661 437.328 742.298 438.066 749.934 437.802L752.812 437.66C761.861 437.172 770.962 436.36 775.716 435C776.033 437.512 776.488 441.158 777 445.693Z" fill="black"/>
<path d="M777 445.693C774.318 445.693 765.378 445.786 755.385 445.935H755.264L751.966 445.989H751.862C740.016 446.17 728.336 443.965 723.656 444.382C713.698 445.276 727.237 435.604 727.237 435.604C734.661 437.323 742.298 438.062 749.934 437.798L752.812 437.655C761.861 437.167 770.962 436.355 775.716 435C776.033 437.513 776.488 441.145 777 445.693Z" fill="#5F5D7E"/>
<path opacity="0.1" d="M748.58 339.036L733.011 346.301L721 439C721 439 728.104 435.793 732.17 437.819C736.237 439.845 748.757 437.99 748.757 437.99C748.757 437.99 757.908 437.482 759.252 438.498C760.597 439.514 776.503 434.252 776.503 434.252C776.503 434.252 779.362 427.837 777.178 426.833C774.993 425.828 777.875 415.87 777.875 415.87L776.503 349.001L773.792 340.389L766.516 336L759.081 341.907L755.529 342.415L748.58 339.036Z" fill="black"/>
<path d="M748.574 338.042L733.009 345.301L721 438C721 438 728.102 434.793 732.168 436.819C736.234 438.845 748.751 436.984 748.751 436.984C748.751 436.984 757.901 436.482 759.245 437.492C760.589 438.502 776.503 433.269 776.503 433.269C776.503 433.269 779.362 426.855 777.178 425.85C774.993 424.846 777.864 414.859 777.864 414.859L776.492 348L773.781 339.394L766.507 335L759.073 340.912L755.522 341.42L748.574 338.042Z" fill="#E7EFFD"/>
<path opacity="0.1" d="M748.109 342.396C748.109 342.396 752.593 347.751 752.513 348.86C752.433 349.968 752.256 352.6 752.256 352.6L748.87 359.494C748.87 359.494 747.011 368.078 747.011 369.864C747.011 371.651 744.048 387.1 744.048 387.1L740.484 410.903L736 442.1L740.576 450L745.987 445.404L753.182 389.812L754.704 378.85C754.704 378.85 756.311 359.132 756.311 357.093C756.311 355.053 755.384 349.698 755.384 349.698C755.384 349.698 756.483 344.597 761.053 343.379C765.623 342.161 760.715 343.12 760.715 343.12L758.09 341L755.802 341.931C755.802 341.931 749.464 340.018 748.109 342.396Z" fill="black"/>
<path d="M747.095 342.362C747.095 342.362 751.584 347.719 751.498 348.822C751.412 349.926 751.241 352.564 751.241 352.564L747.861 359.461C747.861 359.461 745.997 368.047 745.997 369.835C745.997 371.622 743.035 387.077 743.035 387.077L739.483 410.883L735 442.092L739.575 450L744.99 445.402L752.179 389.796L753.706 378.835C753.706 378.835 755.312 359.11 755.312 357.07C755.312 355.029 754.386 349.673 754.386 349.673C754.386 349.673 755.484 344.569 760.053 343.379C764.622 342.19 759.716 343.127 759.716 343.127L757.091 341L754.804 341.937C754.804 341.937 748.45 339.977 747.095 342.362Z" fill="#1B51E5"/>
<path opacity="0.1" d="M744.334 333C744.334 333 743.664 333.513 743.501 336.923C743.338 340.333 741 348 741 348C741 348 749.669 341.865 754 342.545L744.334 333Z" fill="black"/>
<path d="M744.334 332C744.334 332 743.664 332.507 743.501 335.919C743.338 339.33 741 347 741 347C741 347 749.669 340.863 754 341.549L744.334 332Z" fill="#E7EFFD"/>
<path opacity="0.1" d="M768.679 330L755 342.227C755 342.227 766.504 349.19 768.003 350.889C769.501 352.588 771 334.242 771 334.242L768.679 330Z" fill="black"/>
<path d="M768.663 329L755 341.229C755 341.229 766.495 348.19 768.004 349.889C769.513 351.588 771 333.247 771 333.247L768.663 329Z" fill="#E7EFFD"/>
<path opacity="0.1" d="M744.737 333.127C744.737 333.127 743.2 332.366 741.75 334.569C740.682 336.006 739.232 337.119 737.561 337.786C737.561 337.786 722.003 340.241 721.384 342.273L714.116 342.697C714.116 342.697 711.551 343.034 711.297 348.368C711.043 353.703 709.673 354.212 709.673 354.212C709.673 354.212 706.681 359.46 706.941 362.167C707.201 364.875 704.63 366.237 704.63 366.237L715.312 393.755C715.312 393.755 715.659 405.098 713.689 409.248C711.719 413.397 708.05 431.769 708.05 431.769C708.05 431.769 709.587 431.431 709.5 432.444C709.413 433.457 707.674 444.555 707.674 444.555C707.674 444.555 707.16 448.956 706.305 450.484C705.45 452.013 705.363 459.962 705.363 459.962L704 465.72C704 465.72 707.247 472.92 712.204 471.901C717.161 470.883 726.133 451.669 726.133 451.669L731.865 430.922L736.308 410.432L737.59 396.548L739.641 365.813L742.634 345.49C742.634 345.49 745.939 334.552 744.737 333.127Z" fill="black"/>
<path d="M744.742 332.127C744.742 332.127 743.201 331.366 741.753 333.564C740.689 335.002 739.24 336.116 737.57 336.781C737.57 336.781 722.037 339.236 721.414 341.268L714.155 341.691C714.155 341.691 711.599 342.035 711.339 347.369C711.08 352.703 709.718 353.207 709.718 353.207C709.718 353.207 706.729 358.461 706.989 361.168C707.249 363.875 704.681 365.232 704.681 365.232L715.355 392.75C715.355 392.75 715.696 404.093 713.734 408.243C711.772 412.392 708.097 430.77 708.097 430.77C708.097 430.77 709.632 430.427 709.551 431.445C709.47 432.464 707.67 443.55 707.67 443.55C707.67 443.55 707.156 447.957 706.302 449.48C705.448 451.002 705.367 458.963 705.367 458.963L704 464.721C704 464.721 707.243 471.915 712.193 470.902C717.144 469.889 726.122 450.664 726.122 450.664L731.84 429.923L736.277 409.433L737.558 395.543L739.607 364.808L742.596 344.49C742.596 344.49 745.936 333.564 744.742 332.127Z" fill="#65617D"/>
<path opacity="0.1" d="M690 397.607L685.11 400.983C685.11 400.983 677.634 401.222 672.288 399.905L669.57 398.696L669 398.457L669.57 398.634C672.391 399.472 674.596 399.455 676.323 398.873C683.241 396.541 682.478 385.108 682.21 382.525C682.21 382.262 682.164 382.097 682.153 382.034C682.152 382.023 682.152 382.011 682.153 382L682.193 382.068C682.288 382.224 682.395 382.373 682.512 382.513C682.609 382.622 682.711 382.736 682.82 382.844L685.264 387.731C685.264 387.731 685.264 387.799 685.264 387.936L690 397.607Z" fill="black"/>
<path d="M706.5 365L704.13 365.673L703.793 370.48C703.793 370.48 701.006 370.058 700.246 373.331C699.486 376.604 698.133 378.144 698.133 378.144C698.133 378.144 693.484 382.021 693.233 385.312L690.377 387.085C690.377 387.085 683.701 385.563 682.181 382.865C682.181 382.865 685.226 404.631 669 399.316C669 399.316 687.167 407.243 688.013 408.343C688.858 409.444 694.432 412.643 699.504 409.946C704.575 407.248 705.672 403.103 705.672 403.103C705.672 403.103 710.572 396.26 710.737 395.256C710.903 394.253 714.735 393.061 714.735 393.061L722 375.515L706.5 365Z" fill="#65617D"/>
<path opacity="0.1" d="M766.718 340.22L769.191 329C769.191 329 770.298 332.654 771.41 333.504L775.076 336.313C775.076 336.313 778.743 338.008 780.022 338.008C781.302 338.008 788.208 339.795 789.061 340.731C789.914 341.668 793.327 340.984 793.327 340.984C793.327 340.984 796.14 341.921 798.613 342.512C801.086 343.104 802.279 347.189 801.766 348.832C801.343 350.466 801.794 352.203 802.959 353.428C803.985 354.45 804.498 357.765 804.498 357.765C805.747 358.176 806.783 359.062 807.381 360.23C808.234 362.097 807.957 366.176 807.957 366.176L795.275 384.026C795.275 384.026 795.442 390.92 794.935 392.442C794.428 393.965 796.722 419.978 796.722 419.978L799.368 464.68C799.368 464.68 795.869 467.656 795.102 467.995C794.336 468.334 793.569 452.19 793.569 451.593C793.569 450.995 773.872 422.184 773.872 422.184C773.872 422.184 771.226 417.938 771.226 417.014C771.226 416.089 768.753 407.494 768.753 407.494L765 390.92L766.718 340.22Z" fill="black"/>
<path d="M808.996 365.948C808.996 366.519 808.996 366.918 808.996 366.918L796.301 384.607C796.301 384.607 796.474 391.454 795.966 392.96C795.666 393.845 796.318 402.929 796.924 410.392C797.351 415.773 797.755 420.309 797.755 420.309L798.88 439.139L800.398 464.702C800.398 464.702 796.901 467.658 796.134 467.995C795.366 468.331 794.599 452.297 794.599 451.704C794.599 451.111 774.875 422.501 774.875 422.501C774.875 422.501 772.226 418.272 772.226 417.365C772.226 416.458 769.751 407.91 769.751 407.91L766 391.448L767.702 341.138L769.099 330C769.099 330 771.234 333.635 772.342 334.474L776.012 337.258C776.012 337.258 779.682 338.97 780.963 338.97C782.244 338.97 789.163 340.739 790.017 341.669C790.871 342.599 794.281 341.92 794.281 341.92C794.281 341.92 797.097 342.85 799.573 343.438C802.048 344.025 803.249 348.082 802.735 349.714C802.309 351.338 802.761 353.064 803.929 354.279C804.951 355.289 805.464 358.582 805.464 358.582C806.715 358.993 807.751 359.875 808.35 361.035C808.961 362.262 809.019 364.607 808.996 365.948Z" fill="#65617D"/>
<path opacity="0.1" d="M705 591C705.421 591 723.335 591.629 722.995 594.31C722.655 596.99 705 591 705 591Z" fill="black"/>
<path opacity="0.1" d="M709 596C709 596 720.52 597.908 717.493 599.653C714.467 601.398 709 596 709 596Z" fill="black"/>
<path opacity="0.1" d="M754 589C754 589 773.639 590.843 770.7 593.185C767.762 595.526 760.796 595.907 760.49 595.999C760.183 596.091 754 589 754 589Z" fill="black"/>
<path opacity="0.1" d="M751 598C751 598 761.666 599.668 761.993 601.592C762.32 603.517 751 598 751 598Z" fill="black"/>
<path opacity="0.1" d="M757 547C757 547 767.386 549.366 768 551L757 547Z" fill="black"/>
<path opacity="0.1" d="M718.636 555C718.636 555 712.829 556.436 718.452 559.319C724.075 562.202 718.636 555 718.636 555Z" fill="black"/>
<path opacity="0.1" d="M742 473C742.566 473 751.709 470.033 754.888 471.327C757.164 472.17 759.569 472.62 762 472.66L742 473Z" fill="black"/>
<path opacity="0.1" d="M743 482.617L742.908 483.452L735.029 503.964C735.029 503.964 733.756 510.176 732.656 513.703C731.96 516.101 731.407 518.538 731 521L737.997 478L743 482.617Z" fill="black"/>
<path d="M755 445.941L751.909 446H751.812L750 437.16L752.697 437L755 445.941Z" fill="#3F3D56"/>
<path d="M795 436.012L792.894 437.701L785.879 443.404C785.879 443.404 766.877 453.403 761.643 443.905C757.031 435.539 778.573 429.565 783.761 428.265C784.463 428.09 784.863 428 784.863 428L795 436.012Z" fill="#FBBEBE"/>
<path opacity="0.1" d="M713 352C713 352 716.99 353.874 717.903 356.436C718.816 358.998 713 352 713 352Z" fill="black"/>
<path opacity="0.1" d="M702 378C702 378 696.209 384.937 698.563 387.618C700.918 390.299 702 378 702 378Z" fill="black"/>
<path opacity="0.1" d="M799 356C799 356 794.158 356.519 794 361L799 356Z" fill="black"/>
<path opacity="0.1" d="M752 426C752.508 425.502 764.288 408.598 767 410.094L752 426Z" fill="black"/>
<path opacity="0.1" d="M774 313.429C774.005 316.77 773.191 320.06 771.632 323.003L771.484 322.975C770.217 322.704 769.559 321.206 768.588 320.273C767.366 319.092 765.538 318.832 764.044 319.627C762.546 320.54 761.684 322.233 761.818 324C761.176 321.269 761.38 318.372 760.756 315.635C760.131 312.899 758.251 310.133 755.673 310.087C754.537 310.087 753.27 310.496 752.464 309.655C751.981 309.148 751.896 308.348 751.521 307.725C749.681 304.707 744.075 306.233 741.786 307.783C739.498 309.333 736.845 311.816 734 313.141C734.078 301.938 743.095 292.921 754.139 293.001C765.183 293.08 774.073 302.226 773.994 313.429H774Z" fill="black"/>
<path d="M750.905 306.899C751.273 307.509 751.371 308.302 751.861 308.803C752.674 309.642 753.993 309.208 755.117 309.231C757.733 309.277 759.64 312.013 760.274 314.722C760.908 317.43 760.7 320.298 761.351 323C761.214 321.249 762.092 319.573 763.616 318.673C765.132 317.886 766.986 318.143 768.226 319.311C769.211 320.235 769.879 321.717 771.164 321.985C772.449 322.253 773.688 321.033 774.155 319.705C774.622 318.376 774.587 316.894 774.893 315.503C775.469 312.874 777.197 310.713 778.165 308.211C779.307 305.167 779.276 301.814 778.079 298.792C777.439 297.207 776.489 295.781 775.838 294.202C774.858 291.796 774.604 289.071 773.406 286.79C771.401 282.953 766.676 281.038 762.786 282.48C760.937 283.164 759.329 284.498 757.445 285.097C754.927 285.901 752.23 285.297 749.625 284.937C747.021 284.578 744.134 284.544 742.037 286.237C739.622 288.193 738.965 291.865 736.695 294.008C735.744 294.909 734.563 295.485 733.56 296.289C732.558 297.093 731.688 298.358 731.832 299.71C731.982 301.454 733.71 303.039 733.071 304.659C732.84 305.128 732.519 305.548 732.126 305.896C730.227 307.865 728.815 310.241 728 312.84C732.558 314.254 737.496 309.277 741.069 306.922C743.356 305.423 749.038 303.906 750.905 306.899Z" fill="#7C5C5C"/>
<path opacity="0.1" d="M795 436.259L792.815 438C790.891 434.866 783 428.598 783 428.598L783.343 428.273C784.072 428.093 784.486 428 784.486 428L795 436.259Z" fill="black"/>
<path d="M797 432.951C797 432.951 796.246 434.901 795.475 436.578C794.704 438.256 793.853 439.792 793.814 438.545C793.729 436.1 784 427.883 784 427.883L785.321 426.548L786.846 425L797 432.951Z" fill="#E7EFFD"/>
<path opacity="0.1" d="M797.845 420.004L799 439C796.276 434.884 788.803 424.339 784 424.678L795.636 411.664C796.121 411.139 796.568 410.584 796.975 410C797.413 415.428 797.845 420.004 797.845 420.004Z" fill="black"/>
<path opacity="0.1" d="M797 432.558C797 432.558 796.225 434.408 795.433 436C792.427 432.036 788.297 427.355 785 426.469L786.567 425L797 432.558Z" fill="black"/>
<path d="M805.991 364L809.037 366.386C809.037 366.386 814.108 366.472 814.617 370.736C815.125 375 819.761 376.96 819.761 376.96C819.761 376.96 823.226 380.452 823.226 382.071C823.226 383.69 825.849 386.589 825.849 386.848C825.849 387.107 828.387 392.305 828.044 393.238C827.702 394.172 830.754 398.269 829.822 399.802C829.058 401.179 828.38 402.603 827.793 404.066C827.793 404.066 823.82 411.742 821.791 413.188C819.761 414.634 810.455 426.828 810.455 426.828C810.455 426.828 800.48 438.422 800.48 442C800.48 442 790.762 425.635 785 426.061L796.25 413.015C796.25 413.015 798.193 410.889 798.279 409.609C798.365 408.33 803.693 402.447 806.231 402.193C806.231 402.193 806.648 398.695 805.55 398.609C804.453 398.523 803.521 395.797 803.521 395.797C803.521 395.797 796.09 386.934 795.993 381.305C795.895 375.675 805.991 364 805.991 364Z" fill="#65617D"/>
<path opacity="0.1" d="M810 372C810 372 802.646 377.136 804.221 378.786C805.796 380.436 810 372 810 372Z" fill="black"/>
<path opacity="0.1" d="M810 394C810 394 823.603 389.5 825 394H810Z" fill="black"/>
<path opacity="0.1" d="M728 619.135C728 619.135 720.906 623.665 717.361 623.031C713.817 622.397 710.181 624.189 710.181 624.189C707.737 626.791 704.656 628.746 701.226 629.871C695.519 631.763 687.471 631.017 682.911 629.537C680.754 628.836 680.577 627.934 681.616 626.815C686.575 627.778 697.654 629.698 700.639 628.301C704.52 626.487 710.096 622.536 710.096 622.536C710.096 622.536 717.361 621.551 718.372 621.551C719.091 621.551 724.701 619.291 727.869 618L728 619.135Z" fill="black"/>
<path opacity="0.1" d="M772 628L771.924 628.485C771.924 628.485 770.17 632.335 760.6 633.736C751.029 635.138 751 630.496 751 630.496C751 630.496 751.035 629.999 751.094 629.248C754.134 630.413 760.763 631.714 772 628Z" fill="black"/>
<path opacity="0.1" d="M717 371C717 371 717 390.013 715.438 391.89C713.875 393.767 717 371 717 371Z" fill="black"/>
<path opacity="0.1" d="M793 377L795.85 384C795.85 384 796.986 377.128 793 377Z" fill="black"/>
<g opacity="0.1">
<path d="M733.656 303.287C734.28 301.68 732.64 300.109 732.426 298.387C732.208 298.873 732.115 299.405 732.154 299.936C732.264 301.23 733.217 302.437 733.472 303.639C733.543 303.527 733.605 303.409 733.656 303.287Z" fill="black"/>
<path d="M762.025 321.695C761.413 319.002 761.592 316.148 760.968 313.45C760.344 310.752 758.42 307.932 755.803 307.886C754.647 307.886 753.353 308.302 752.538 307.458C752.041 306.95 751.96 306.141 751.573 305.523C749.701 302.489 744.004 304.026 741.67 305.58C738.204 307.892 733.373 312.762 728.89 311.664C728.676 312.179 728.48 312.704 728.312 313.242C732.882 314.675 737.834 309.631 741.416 307.244C743.727 305.696 749.447 304.159 751.319 307.192C751.689 307.811 751.787 308.614 752.278 309.122C753.093 309.972 754.416 309.532 755.543 309.556C758.166 309.602 760.078 312.375 760.714 315.12C761.349 317.864 761.141 320.77 761.794 323.509C761.752 322.895 761.831 322.279 762.025 321.695Z" fill="black"/>
<path d="M774.875 318.494C774.413 319.846 773.194 321.094 771.876 320.805C770.559 320.516 769.918 319.031 768.935 318.089C767.686 316.919 765.834 316.662 764.313 317.448C762.862 318.313 761.993 319.896 762.043 321.585C762.389 320.541 763.106 319.661 764.059 319.112C765.579 318.315 767.438 318.575 768.681 319.759C769.669 320.695 770.339 322.197 771.628 322.469C772.916 322.74 774.159 321.504 774.627 320.158C774.87 319.358 775.027 318.535 775.095 317.702C775.038 317.97 774.965 318.235 774.875 318.494Z" fill="black"/>
<path d="M778.896 306.846C777.937 309.382 776.192 311.566 775.615 314.236C775.499 314.773 775.43 315.322 775.366 315.876C775.944 313.219 777.677 311.04 778.642 308.51C779.068 307.371 779.335 306.179 779.434 304.968C779.302 305.607 779.123 306.234 778.896 306.846Z" fill="black"/>
</g>
<path d="M656 368.206C656.114 368.206 656.206 368.114 656.206 368C656.206 367.886 656.114 367.794 656 367.794C655.886 367.794 655.794 367.886 655.794 368C655.794 368.114 655.886 368.206 656 368.206Z" fill="#E6E8EC"/>
<path opacity="0.1" d="M729.5 634C756.838 634 779 631.761 779 629C779 626.239 756.838 624 729.5 624C702.162 624 680 626.239 680 629C680 631.761 702.162 634 729.5 634Z" fill="#1B51E5"/>
<path d="M547.041 298.252L397 395.479L494.916 571.868C495.841 573.536 497.422 574.741 499.277 575.192L587.995 596.808C591.128 597.565 594.365 596.034 595.764 593.134L639.771 501.817L688 437.421L573.548 302.178C566.959 294.395 555.608 292.714 547.041 298.252Z" fill="#DCDFED"/>
<path opacity="0.1" d="M690 438.419L689.575 438.992L661.325 476.714L660.814 477.396L641.772 502.821L604.134 580.93L603.079 583.113L597.766 594.132C596.365 597.037 593.122 598.568 589.986 597.805L501.269 576.179C499.414 575.73 497.832 574.524 496.908 572.856L488.377 557.516L486.845 554.754L425.266 443.783L424.738 442.837L399 396.48L402.11 394.463L425.685 379.192L426.23 378.836L475.875 346.667L479.008 344.638L549.033 299.261C557.599 293.712 568.96 295.392 575.551 303.18L627.761 364.895L630.056 367.645L667.951 412.421L668.158 412.668L687.212 435.176L689.61 438.012L690 438.419Z" fill="black"/>
<path opacity="0.1" d="M666 411.921L661.383 443.96L659.991 453.628L659.195 474.225L659.132 475.832L654.99 583.447C654.91 585.468 653.935 587.349 652.331 588.583C650.726 589.817 648.656 590.276 646.679 589.837L602.033 579.882L601.552 579.774L487.05 554.252L484.948 553.783L422 539.743L423.444 442.987L423.489 439.755L423.925 410.468L424.406 378.144L473.972 346.025L477.1 344C523.075 348.708 584.218 357.765 625.639 364.224L627.93 366.97L665.736 411.675L666 411.921Z" fill="black"/>
<path d="M672 373.773L666.56 411.51L661.572 446.068L660.179 455.708L659.382 476.292L655.174 585.451C655.094 587.471 654.119 589.351 652.513 590.584C650.906 591.817 648.835 592.276 646.856 591.837L601.693 581.78L487.101 556.273L422 541.772L423.491 441.843L423.926 412.574L424.436 378.336L424.958 343.12C435.724 342.611 453.438 343.76 474.587 345.881C521.939 350.621 586.49 360.21 628.695 366.814C654.538 370.857 672 373.773 672 373.773Z" fill="#1B51E5"/>
<path opacity="0.1" d="M685.619 434.609L661.42 446.457L537.922 506.927L424.11 413.016L401.103 394L398 396.012L423.681 442.25L422.192 542.141L487.202 556.635L495.697 571.936C496.619 573.6 498.197 574.802 500.048 575.251L588.568 596.81C591.692 597.561 594.918 596.036 596.314 593.146L601.615 582.155L646.714 592.209C648.689 592.647 650.758 592.188 652.362 590.956C653.966 589.723 654.94 587.843 655.02 585.824L659.222 476.709L687.92 438.415L688 437.449L685.619 434.609Z" fill="black"/>
<path d="M397.234 396L387.012 570.645C386.816 573.984 389.077 576.971 392.349 577.698L663.818 637.842C665.744 638.263 667.758 637.833 669.343 636.664C670.928 635.495 671.93 633.699 672.091 631.739L688 437.864L537.365 511.576L397.234 396Z" fill="#DCDFED"/>
<path opacity="0.1" d="M389.563 574.479L530.373 487.501C534.678 484.887 540.237 485.758 543.538 489.564L669.569 636.729C670.027 637.256 670.25 636.878 669.569 636.729L389.563 574.479C388.865 574.898 388.762 574.302 389.563 574.479Z" fill="black"/>
<path d="M389.733 573.824L529.466 489.575C534.027 486.826 539.908 487.75 543.402 491.764L668.632 635.508C669.057 635.998 669.12 636.706 668.788 637.263C668.456 637.821 667.804 638.104 667.169 637.965L390.186 576.579C389.582 576.449 389.12 575.964 389.02 575.355C388.92 574.747 389.202 574.14 389.733 573.824Z" fill="#E3E5F1"/>
<defs>
<linearGradient id="paint0_linear_326_24334" x1="831.021" y1="634.985" x2="831.021" y2="279.999" gradientUnits="userSpaceOnUse">
<stop stop-color="#808080" stop-opacity="0.25"/>
<stop offset="0.54" stop-color="#808080" stop-opacity="0.12"/>
<stop offset="1" stop-color="#808080" stop-opacity="0.1"/>
</linearGradient>
</defs>
</svg>
