<svg viewBox="0 0 756 900" fill="none" xmlns="http://www.w3.org/2000/svg">
<path opacity="0.2" d="M157.88 360.351C135.328 378.731 113.479 399.3 99.7521 425.248C79.564 463.398 79.8753 511.389 100.593 546.763C118.134 576.756 147.714 596.286 173.021 619.454C204.2 647.987 229.426 682.758 253.301 718.118C266.13 737.11 279.066 756.806 297.803 769.526C323.82 787.183 358.894 788.929 389.526 777.593C420.157 766.256 446.377 742.854 465.206 715.042C475.226 700.241 483.515 683.516 484.71 665.922C485.975 647.308 479.231 629.313 480.632 610.698C481.929 593.448 490.137 577.132 499.732 562.464C512.258 543.312 527.421 526.022 544.773 511.102C564.441 494.213 586.59 480.737 606.322 463.984C626.053 447.231 643.913 426.02 650.09 400.786C655.9 377.064 650.794 352.74 644.596 329.888C634.505 292.546 621.391 256.088 605.384 220.875C594.637 197.278 582.364 174.003 564.39 155.938C530.029 121.393 475.317 110.041 428.067 127.643C388.92 142.229 357.308 173.883 330.085 207.017C305.26 237.232 282.614 275.666 250.432 298.092C219.726 319.467 187.337 336.352 157.88 360.351Z" fill="#1B51E5"/>
<path opacity="0.2" d="M906.091 581.382C942.345 558.566 977.963 532.428 1002.68 496.971C1039.03 444.842 1047.19 374.656 1023.26 319.245C1003.01 272.27 963.292 238.425 930.47 200.028C890.029 152.74 859.408 97.4027 830.866 41.4481C815.529 11.3926 800.161 -19.7094 775.064 -41.6587C740.215 -72.1283 689.274 -80.9712 642.478 -69.8992C595.683 -58.8272 553.167 -29.3317 520.661 7.93436C503.363 27.7652 488.248 50.7204 483.344 76.2156C478.154 103.191 484.779 130.697 479.391 157.648C474.4 182.624 459.476 204.994 442.824 224.708C421.081 250.449 395.821 272.996 367.787 291.686C336.015 312.84 301.23 328.559 269.389 349.502C237.549 370.445 207.644 398.237 194.089 434.005C181.341 467.629 184.437 504.09 189.392 538.596C197.436 594.975 210.056 650.605 227.126 704.933C238.595 741.345 252.352 777.558 275.374 807.181C319.386 863.827 397.298 890.23 469.504 872.982C529.326 858.689 581.201 818.101 626.929 774.564C668.628 734.863 708.619 682.76 759.671 655.761C808.379 630.033 858.738 611.168 906.091 581.382Z" fill="#1B51E5"/>
<path d="M612.693 286.17H610.901V189.56C610.901 168.256 593.353 151 571.706 151H352.16C330.513 151 312.966 168.272 312.966 189.56V229.607H312.829H312.444C311.181 229.598 310.15 230.611 310.137 231.873V251.153C310.15 252.414 311.181 253.427 312.444 253.418H312.87H313.006V273.108H312.299C311.693 273.104 311.111 273.34 310.68 273.765C310.249 274.19 310.004 274.768 310 275.374V312.239C310.009 313.5 311.037 314.517 312.299 314.512H313.006V328.973H312.395C311.789 328.966 311.204 329.201 310.771 329.627C310.338 330.052 310.093 330.631 310.088 331.238V368.465C310.093 369.071 310.338 369.651 310.771 370.076C311.204 370.501 311.789 370.737 312.395 370.73H313.006V708.44C313.006 729.744 330.554 747 352.2 747H571.698C593.345 747 610.892 729.728 610.892 708.44V358.423H612.693C613.955 358.432 614.987 357.419 615 356.158V288.436C614.987 287.175 613.955 286.162 612.693 286.17Z" fill="url(#paint0_linear_0_1207)"/>
<g opacity="0.9">
<rect x="603.286" y="287.371" width="8.67422" height="71.2499" rx="2.29" fill="#E5E7EB"/>
<rect x="314.846" y="231.555" width="4.8727" height="23.4558" rx="2.29" fill="#E5E7EB"/>
<rect x="314.668" y="274.496" width="5.49287" height="40.8231" rx="2.29" fill="#E5E7EB"/>
<rect x="314.757" y="329.606" width="5.22708" height="41.176" rx="2.29" fill="#E5E7EB"/>
<rect x="317.6" y="154.04" width="290.365" height="590.767" rx="36" fill="white"/>
<rect x="434.779" y="171.592" width="40.5522" height="8.19831" rx="3.87" fill="#E5E7EB"/>
<path d="M486.123 180.344C488.703 180.344 490.795 178.261 490.795 175.691C490.795 173.121 488.703 171.038 486.123 171.038C483.543 171.038 481.452 173.121 481.452 175.691C481.452 178.261 483.543 180.344 486.123 180.344Z" fill="#E5E7EB"/>
</g>
<path d="M566.987 170H533.813V174.01C533.808 184.451 525.324 192.912 514.859 192.912H409.092C398.627 192.912 390.142 184.451 390.137 174.01V170H359.013C346.303 170 336 180.28 336 192.96V704.04C336 716.72 346.303 727 359.013 727H566.987C579.697 727 590 716.72 590 704.04V192.96C590 180.28 579.697 170 566.987 170Z" fill="#ECECF3"/>
<g opacity="0.4">
<path d="M660.516 716.892C674.992 716.892 686.727 714.832 686.727 712.292C686.727 709.751 674.992 707.692 660.516 707.692C646.04 707.692 634.305 709.751 634.305 712.292C634.305 714.832 646.04 716.892 660.516 716.892Z" fill="#5E81F4"/>
<path d="M671.349 704.767C672.544 703.755 673.417 702.393 673.854 700.858C674.176 699.3 673.533 697.433 672.104 696.867C670.498 696.233 668.787 697.383 667.486 698.533C666.185 699.683 664.7 701.033 662.997 700.783C664.789 699.106 665.592 696.57 665.109 694.117C665.037 693.622 664.834 693.158 664.523 692.775C663.632 691.783 662.018 692.208 660.958 692.983C657.569 695.483 656.621 700.242 656.597 704.542C656.26 702.992 656.549 701.375 656.541 699.783C656.533 698.192 656.107 696.45 654.815 695.567C654.008 695.121 653.102 694.903 652.189 694.933C650.663 694.875 648.977 695.033 647.925 696.183C646.632 697.625 646.969 700.033 648.093 701.617C649.217 703.2 650.928 704.192 652.51 705.283C653.77 706.066 654.845 707.131 655.658 708.4C655.755 708.577 655.833 708.764 655.891 708.958H665.447C667.588 707.844 669.573 706.434 671.349 704.767Z" fill="#5E81F4"/>
</g>
<rect x="356" y="213" width="42" height="42" fill="#D6D8E0"/>
<rect x="428" y="216" width="86" height="7" fill="#D6D8E0"/>
<rect x="427" y="230" width="142" height="7" fill="#D6D8E0"/>
<rect x="427" y="243" width="142" height="7" fill="#D6D8E0"/>
<rect x="356" y="287" width="42" height="42" fill="#D6D8E0"/>
<rect x="428" y="292" width="86" height="7" fill="#D6D8E0"/>
<rect x="427" y="305" width="142" height="7" fill="#D6D8E0"/>
<rect x="427" y="319" width="142" height="7" fill="#D6D8E0"/>
<rect x="357" y="363" width="42" height="42" fill="#D6D8E0"/>
<rect x="428" y="367" width="86" height="7" fill="#D6D8E0"/>
<rect x="427" y="380" width="142" height="7" fill="#D6D8E0"/>
<rect x="427" y="393" width="142" height="7" fill="#D6D8E0"/>
<rect x="357" y="437" width="42" height="42" fill="#D6D8E0"/>
<rect x="429" y="442" width="86" height="7" fill="#D6D8E0"/>
<rect x="428" y="455" width="142" height="7" fill="#D6D8E0"/>
<rect x="428" y="469" width="142" height="7" fill="#D6D8E0"/>
<rect x="357" y="513" width="42" height="42" fill="#D6D8E0"/>
<rect x="429" y="518" width="86" height="7" fill="#D6D8E0"/>
<rect x="428" y="531" width="142" height="7" fill="#D6D8E0"/>
<rect x="428" y="544" width="142" height="7" fill="#D6D8E0"/>
<rect x="357" y="589" width="42" height="42" fill="#D6D8E0"/>
<rect x="429" y="592" width="86" height="7" fill="#D6D8E0"/>
<rect x="428" y="606" width="142" height="7" fill="#D6D8E0"/>
<rect x="428" y="619" width="142" height="7" fill="#D6D8E0"/>
<rect x="358" y="663" width="42" height="42" fill="#D6D8E0"/>
<rect x="429" y="668" width="86" height="7" fill="#D6D8E0"/>
<rect x="428" y="681" width="142" height="7" fill="#D6D8E0"/>
<rect x="428" y="695" width="142" height="7" fill="#D6D8E0"/>
<rect x="289" y="337" width="350" height="87" fill="url(#paint1_linear_0_1207)"/>
<rect x="291" y="340" width="347" height="82" fill="white"/>
<rect x="357" y="360" width="42" height="42" fill="#5E81F4"/>
<g opacity="0.5">
<rect x="428.449" y="362.272" width="85.8739" height="7.784" fill="#5E81F4"/>
<rect x="428.449" y="375.896" width="141.495" height="7.784" fill="#5E81F4"/>
<rect x="428.449" y="389.52" width="141.495" height="7.784" fill="#5E81F4"/>
</g>
<path fill-rule="evenodd" clip-rule="evenodd" d="M404.812 411.23C407.445 409.644 411.084 410.357 413.274 412.511C415.418 414.8 416.375 417.948 415.866 421.035C415.73 422.433 415.188 423.761 414.304 424.856C413.389 425.886 412.137 426.463 410.863 427.051C410.512 427.212 410.159 427.375 409.812 427.548C405.754 429.626 402.656 433.177 401.157 437.465C399.969 440.864 399.237 444.346 398.507 447.816C397.565 452.299 396.626 456.762 394.716 461.001C393.438 463.838 392.068 466.631 390.699 469.423C388.438 474.034 386.179 478.641 384.338 483.432C383.971 484.392 383.618 485.359 383.265 486.327C382.015 489.752 380.763 493.182 378.88 496.305C377.69 498.259 376.174 499.996 374.395 501.44C374.581 504.26 374.637 507.088 374.637 509.868C373.527 509.845 372.483 510.393 371.875 511.318C371.286 512.231 370.878 513.248 370.676 514.314C370.111 516.638 370.192 519.042 370.273 521.446C370.35 523.741 370.427 526.035 369.943 528.261C367.218 540.962 368.054 554.164 372.359 566.425C373.453 569.541 374.838 579.819 373.671 582.903C370.27 582.542 367.17 584.07 364.036 585.615C363.133 586.06 362.228 586.506 361.313 586.909C360.971 589.341 361.169 591.818 361.892 594.167C363.325 598.388 363.325 602.963 363.325 607.433L363.132 640.486C363.108 644.683 363.076 648.929 362.013 652.983C361.618 654.467 361.089 655.961 360.557 657.463C359.449 660.59 358.328 663.753 358.382 666.946C358.465 671.896 357.343 676.752 356.222 681.605C355.056 686.656 353.89 691.703 354.083 696.85C354.137 698.161 354.276 699.465 354.416 700.769C354.482 701.393 354.549 702.017 354.606 702.642C355.09 707.761 354.96 712.919 354.22 718.007C353.731 721.387 352.976 724.749 352.222 728.107C350.714 734.823 349.209 741.524 349.848 748.328C349.912 749.017 350.146 749.962 350.806 750.187C349.99 751.105 349.148 751.992 348.278 752.846C348.452 753.14 348.692 753.39 348.978 753.575C349.93 754.071 350.981 754.344 352.054 754.376C353.311 754.409 354.532 754.807 355.564 755.522C356.327 756.235 356.841 757.173 357.029 758.198C357.616 760.236 357.262 762.429 356.063 764.182C355.347 765.084 354.41 765.787 353.342 766.225C349.615 767.811 345.356 766.657 341.475 765.488L326.387 760.937C325.46 760.746 324.605 760.302 323.916 759.656C323.597 759.287 323.388 758.838 323.312 758.358C319.923 759.191 316.235 758.182 312.846 757.156L297.645 752.574C296.718 752.382 295.863 751.939 295.174 751.292C294.622 750.621 294.393 749.743 294.546 748.889L294.216 748.761C293.056 748.232 291.76 747.223 292.082 745.989C292.195 745.549 292.497 745.205 292.802 744.858C293.042 744.585 293.283 744.311 293.435 743.986C293.758 743.011 293.544 741.938 292.871 741.159C292.601 740.796 292.292 740.464 291.983 740.133C291.602 739.724 291.222 739.316 290.915 738.851C289.399 736.54 290.081 733.602 290.726 730.825C290.828 730.387 290.928 729.953 291.02 729.527C291.802 725.834 291.752 722.051 291.703 718.262C291.662 715.188 291.622 712.111 292.026 709.075C292.237 707.5 292.567 705.945 292.896 704.39C293.045 703.69 293.193 702.991 293.33 702.29C294.266 696.931 294.884 691.522 295.182 686.092C295.369 683.62 295.715 681.16 296.061 678.707C296.8 673.457 297.535 668.238 296.695 662.996C296.076 658.484 295.807 653.931 295.89 649.378C295.801 646.48 295.931 643.58 296.277 640.702C296.414 639.737 296.602 638.78 296.79 637.823C297.02 636.651 297.25 635.48 297.388 634.293C297.58 631.868 297.623 629.434 297.517 627.003C297.406 621.592 297.909 616.185 299.014 610.885C299.739 607.578 300.762 604.331 301.784 601.088C303.009 597.199 304.233 593.315 304.94 589.336L303.652 589.64C303.606 585.055 306.879 576.111 309.084 570.087C309.583 568.723 310.027 567.509 310.366 566.529C310.634 565.875 310.797 565.183 310.849 564.478C310.737 563.555 310.564 562.64 310.334 561.738C310.191 560.551 310.538 559.401 310.886 558.246C311.108 557.507 311.331 556.766 311.429 556.011C311.532 554.647 311.429 553.275 311.123 551.941C309.842 544.81 308.242 537.742 306.64 530.666L306.614 530.552C305.904 527.983 305.662 525.308 305.898 522.653C306.272 519.802 305.392 516.929 303.482 514.771C302.777 514.124 302.177 513.373 301.703 512.544C301.432 511.831 301.312 511.07 301.349 510.309C301.382 507.011 301.867 503.734 302.79 500.567C301.381 498.012 300.858 494.872 300.447 491.915L300.434 491.818C299.537 485.298 298.636 478.753 298.676 472.177C298.605 468.652 299.091 465.137 300.117 461.762C300.878 459.682 301.798 457.662 302.871 455.722C303.637 454.256 304.396 452.776 305.158 451.291C308.616 444.552 312.122 437.719 316.509 431.634C317.72 429.954 317.459 427.809 317.2 425.676C317.11 424.93 317.019 424.185 316.992 423.462C316.863 420.098 318.2 416.877 319.52 413.777C320.185 411.874 321.212 410.117 322.547 408.602C323.455 407.608 324.732 407.029 326.082 407C327.618 407.191 328.997 408.032 329.865 409.307C331.829 411.971 332.643 415.304 332.128 418.568C331.596 421.806 330.178 424.835 328.03 427.324C326.994 428.579 325.807 429.704 324.495 430.672C323.148 434.881 321.806 439.086 320.47 443.289C318.385 449.978 316.259 456.692 313.224 463.02C313.15 463.177 313.074 463.335 312.999 463.492C312.194 465.175 311.372 466.895 311.284 468.748C311.185 470.657 311.866 472.492 312.533 474.292C312.63 474.554 312.727 474.816 312.822 475.077C314.361 479.371 315.235 483.874 315.414 488.431C315.649 488.532 315.875 488.652 316.09 488.791C317.308 489.586 318.124 490.833 318.938 492.076C319.814 493.414 320.687 494.748 322.056 495.512C323.103 496.093 324.295 496.258 325.49 496.424C326.059 496.503 326.629 496.582 327.185 496.706L327.651 496.834C327.669 496.756 327.689 496.679 327.708 496.602C327.769 496.362 327.829 496.123 327.829 495.881C327.845 495.676 327.845 495.469 327.829 495.264C323.723 493.015 320.275 489.744 317.821 485.771C317.298 485.039 316.898 484.228 316.638 483.368C316.42 482.341 316.379 481.284 316.517 480.244C316.645 476.774 317.136 473.326 317.982 469.958C318.847 466.576 320.726 463.536 323.368 461.242C324.035 460.704 324.753 460.235 325.471 459.767C326.174 459.308 326.877 458.849 327.531 458.326C328.567 457.494 329.472 456.504 330.373 455.519C331.711 454.056 333.04 452.602 334.777 451.693C338.612 449.821 343.247 450.999 345.71 454.473C346.103 455.252 346.651 455.944 347.32 456.507C347.544 456.662 347.788 456.772 348.031 456.881C348.304 457.004 348.575 457.126 348.809 457.308C349.703 458.021 349.743 459.367 349.462 460.465C348.909 462.72 348.599 465.026 348.536 467.346C353.927 473.606 353.947 482.836 348.584 489.12C348.584 490.61 348.608 492.1 348.648 493.582C348.652 493.711 348.662 493.839 348.672 493.966C348.684 494.122 348.697 494.277 348.697 494.431C349.626 494.11 350.457 493.559 351.112 492.829C351.505 492.344 351.755 491.756 352.005 491.17C352.328 490.411 352.65 489.656 353.278 489.136C354.07 488.614 354.975 488.285 355.918 488.174C358.263 487.643 360.461 486.607 362.359 485.138C362.615 484.94 362.873 484.733 363.134 484.523C364.381 483.52 365.687 482.469 367.125 482.19C370.127 476.593 373.63 471.276 377.592 466.305C378.596 465.124 379.511 463.871 380.329 462.556C381.503 460.518 382.118 458.238 382.733 455.954C383.025 454.87 383.318 453.786 383.67 452.726C385.032 448.621 387.301 444.874 389.564 441.138C392.382 436.484 395.19 431.847 396.222 426.555C396.686 424.179 397.871 422.022 399.056 419.866C399.597 418.882 400.138 417.898 400.609 416.893C401.64 414.739 402.767 412.455 404.812 411.23ZM320.035 742.352C319.729 742.745 319.407 743.105 319.077 743.466C319.279 744.168 319.692 744.791 320.261 745.252C321.212 745.747 322.263 746.021 323.336 746.053C323.864 746.105 324.388 746.188 324.906 746.302C325.063 744.989 325.161 743.662 325.258 742.354C325.285 741.986 325.313 741.619 325.341 741.255C325.776 735.815 326.621 730.416 327.474 725.025C327.712 723.553 327.916 722.049 328.122 720.534C328.703 716.25 329.297 711.876 330.695 707.905C333.778 699.133 336.902 690.105 336.508 680.82C336.461 679.723 336.364 678.626 336.267 677.529C336.179 676.527 336.091 675.526 336.041 674.524C335.945 672.767 335.966 670.998 335.987 669.23C336.027 665.765 336.067 662.306 335.235 658.959C335.007 658.031 334.712 657.118 334.416 656.204C333.982 654.862 333.548 653.521 333.327 652.133C333.089 650.005 333.062 647.858 333.247 645.725C333.596 638.376 332.979 631.013 331.411 623.823C329.93 625.762 329.439 628.293 328.996 630.696C327.987 636.122 326.978 641.551 325.969 646.982C325.817 647.801 325.666 648.624 325.516 649.45C323.884 658.383 322.192 667.641 317.829 675.509C318.506 678.609 319.158 681.918 318.055 684.89C317.815 685.546 317.497 686.157 317.179 686.766C316.869 687.362 316.559 687.957 316.324 688.591C315.746 690.137 315.641 691.79 315.535 693.446C315.494 694.099 315.452 694.753 315.382 695.4C315.225 696.872 314.93 698.332 314.638 699.781C313.97 703.087 313.314 706.339 314.327 709.564C315.841 714.345 316.823 719.277 317.258 724.272C317.334 725.663 317.495 727.049 317.741 728.421C317.861 729.014 318.017 729.584 318.172 730.15C318.348 730.792 318.523 731.43 318.642 732.09C318.97 733.863 318.893 735.686 318.417 737.425C318.052 738.39 317.829 739.402 317.757 740.43C317.781 741.455 319.021 742.192 320.035 742.352Z" fill="url(#paint2_linear_0_1207)"/>
<path d="M351.773 754.281C353.023 754.317 354.236 754.717 355.267 755.434C356.024 756.152 356.535 757.096 356.725 758.129C357.307 760.183 356.955 762.394 355.763 764.159C355.049 765.066 354.117 765.77 353.055 766.205C349.345 767.828 345.107 766.651 341.245 765.474L326.117 760.856C325.195 760.665 324.344 760.218 323.658 759.565C322.805 758.403 322.779 756.819 323.593 755.629C324.407 754.484 325.516 753.588 326.798 753.039C331.51 750.718 336.814 750.182 342.022 750.085C343.945 750.044 345.836 749.622 347.142 751.124C347.831 751.936 347.711 752.796 348.744 753.486C349.681 753.981 350.717 754.253 351.773 754.281V754.281Z" fill="#3F3D56"/>
<path d="M323.773 747.275C325.022 747.303 326.237 747.701 327.266 748.42C328.019 749.142 328.529 750.085 328.724 751.116C329.308 753.173 328.955 755.386 327.763 757.151C327.049 758.061 326.117 758.769 325.055 759.206C321.345 760.831 317.106 759.645 313.244 758.467L298.117 753.846C297.194 753.658 296.342 753.21 295.657 752.554C294.805 751.391 294.779 749.806 295.593 748.615C296.405 747.468 297.514 746.571 298.798 746.024C303.51 743.701 308.806 743.165 313.982 743.067C315.897 743.067 317.795 742.604 319.101 744.107C319.79 744.919 319.67 745.788 320.704 746.471C321.653 746.971 322.703 747.246 323.773 747.275Z" fill="#3F3D56"/>
<path d="M336.368 580.867C327.465 579.967 318.508 579.714 309.569 580.11C308.978 580.103 308.391 580.195 307.832 580.384C305.862 581.189 305.558 583.783 305.366 585.909C304.614 594.502 300.843 602.516 298.962 610.948C297.862 616.243 297.362 621.647 297.473 627.056C297.578 629.472 297.535 631.893 297.345 634.304C297.097 636.462 296.545 638.565 296.241 640.747C295.896 643.622 295.768 646.519 295.857 649.413C295.774 653.956 296.042 658.498 296.657 663C297.882 670.683 295.736 678.302 295.152 686.066C294.856 691.491 294.241 696.894 293.311 702.246C292.871 704.501 292.318 706.74 292.014 709.019C291.118 715.792 292.423 722.775 291.014 729.452C290.349 732.576 289.165 736.088 290.91 738.762C291.462 739.607 292.254 740.26 292.855 741.065C293.522 741.843 293.735 742.916 293.415 743.892C293.071 744.625 292.27 745.108 292.07 745.889C291.75 747.122 293.039 748.136 294.192 748.66C302.877 752.598 314.075 749.82 319.935 742.257C318.926 742.096 317.693 741.363 317.669 740.34C317.741 739.312 317.963 738.3 318.326 737.336C318.8 735.599 318.877 733.776 318.55 732.005C318.326 730.772 317.909 729.588 317.653 728.34C317.409 726.971 317.249 725.589 317.173 724.2C316.741 719.211 315.764 714.284 314.259 709.51C312.81 704.879 314.796 700.192 315.308 695.36C315.556 693.081 315.444 690.713 316.245 688.562C316.717 687.282 317.493 686.146 317.966 684.866C319.062 681.894 318.414 678.6 317.741 675.499C322.48 666.906 324.049 656.669 325.834 647.005C326.837 641.582 327.841 636.159 328.844 630.736C329.284 628.32 329.772 625.815 331.245 623.874C332.805 631.056 333.418 638.414 333.07 645.757C332.889 647.872 332.916 650.001 333.15 652.111C333.519 654.439 334.487 656.637 335.048 658.933C336.296 663.974 335.568 669.282 335.848 674.476C335.952 676.57 336.224 678.664 336.312 680.766C336.705 690.036 333.599 699.057 330.533 707.811C328.652 713.183 328.236 719.288 327.331 724.909C326.483 730.297 325.642 735.685 325.21 741.121C324.818 746.115 324.649 751.519 321.56 755.441C324.377 757.285 327.299 759.162 330.597 759.798C334.451 760.403 338.394 759.637 341.748 757.632C345.075 755.624 348.05 753.077 350.553 750.093C349.896 749.868 349.664 748.918 349.6 748.233C348.648 738.045 352.49 728.098 353.947 717.951C354.682 712.868 354.811 707.714 354.331 702.6C354.155 700.675 353.891 698.759 353.811 696.826C353.434 686.742 358.253 677.037 358.085 666.954C358.005 662.235 360.487 657.571 361.695 653.005C362.752 648.978 362.784 644.718 362.808 640.53L363 607.509C363 603.039 363 598.473 361.575 594.253C359.814 589.187 361.823 583.356 362.127 578C353.81 580.643 345.058 581.617 336.368 580.867V580.867Z" fill="#3F3D56"/>
<path d="M365.545 488.462C368.911 481.528 373.023 474.987 377.806 468.957C378.802 467.778 379.712 466.527 380.528 465.214C382.25 462.213 382.763 458.672 383.852 455.381C386.895 446.152 394.486 438.739 396.336 429.196C397.009 425.735 399.203 422.742 400.7 419.516C401.725 417.354 402.847 415.079 404.881 413.869C407.499 412.255 411.119 413.006 413.297 415.159C415.421 417.439 416.371 420.585 415.868 423.67C415.737 425.071 415.196 426.402 414.314 427.494C413.153 428.808 411.415 429.405 409.846 430.196C405.815 432.259 402.731 435.811 401.237 440.11C398.562 447.903 398.226 456.147 394.831 463.657C391.435 471.167 387.447 478.387 384.508 486.075C382.851 490.439 381.513 494.948 379.079 498.982C376.645 503.015 372.817 506.395 368.22 507C368.226 504.085 367.772 501.188 366.875 498.417C365.906 495.214 364.088 491.431 365.545 488.462Z" fill="#A0616A"/>
<path d="M314.956 493.633C315.164 487.945 314.268 482.27 312.317 476.915C311.568 474.864 310.647 472.78 310.761 470.6C310.859 468.581 311.845 466.714 312.724 464.888C315.795 458.573 317.945 451.871 320.054 445.194L324.126 432.612C325.451 431.646 326.651 430.525 327.702 429.273C329.871 426.793 331.306 423.77 331.847 420.536C332.368 417.277 331.544 413.947 329.559 411.293C328.678 410.018 327.282 409.182 325.731 409C324.365 409.023 323.07 409.606 322.156 410.609C320.806 412.119 319.766 413.873 319.093 415.774C317.758 418.863 316.406 422.081 316.536 425.428C316.642 428.211 317.7 431.317 316.047 433.577C310.631 440.987 306.543 449.506 302.25 457.607C301.166 459.542 300.234 461.556 299.465 463.633C298.426 467.005 297.934 470.519 298.007 474.043C297.966 480.64 298.887 487.197 299.799 493.737C300.369 497.824 301.135 502.281 304.27 505C307.536 500.905 310.81 496.867 314.956 493.633Z" fill="#A0616A"/>
<path d="M335.5 496C344.613 496 352 488.613 352 479.5C352 470.387 344.613 463 335.5 463C326.387 463 319 470.387 319 479.5C319 488.613 326.387 496 335.5 496Z" fill="#A0616A"/>
<path d="M327.56 497.53C327.161 500.499 325.556 503.144 323.992 505.703C323.042 507.282 321.844 508.964 320 509.138C324.795 511.633 329.835 513.638 335.04 515.123C336.813 515.711 338.671 516.007 340.541 516C342.123 515.883 343.672 515.49 345.115 514.839C351.515 512.065 356.267 506.531 358 499.836C355.94 499.89 353.88 499.734 351.853 499.37C350.719 499.164 349.498 498.833 348.835 497.909C348.375 497.105 348.159 496.186 348.213 495.264C348.133 492.531 348.133 489.799 348.213 487.067C344.143 486.808 340.06 487.303 336.174 488.528C334.577 489.041 332.981 489.665 331.344 490.068C330.338 490.312 327.568 490.068 326.826 490.644C325.7 491.521 327.855 495.516 327.56 497.53Z" fill="#A0616A"/>
<path d="M334.651 507.837C334.272 503.351 331.072 499.61 326.704 498.547C324.99 498.17 323.14 498.21 321.602 497.359C318.974 495.891 318.181 492.313 315.666 490.668C313.151 489.024 309.562 489.938 307.367 492.024C305.172 494.11 304.059 497.063 303.161 499.951C301.818 503.866 301.091 507.966 301.007 512.105C300.969 512.865 301.089 513.624 301.359 514.335C301.833 515.162 302.43 515.911 303.129 516.558C305.027 518.695 305.904 521.552 305.533 524.388C305.298 527.033 305.539 529.698 306.245 532.258C307.848 539.326 309.45 546.402 310.731 553.534C311.032 554.849 311.134 556.201 311.036 557.545C310.787 559.471 309.714 561.308 309.946 563.234C310.176 564.133 310.347 565.047 310.459 565.969C310.407 566.667 310.244 567.352 309.978 567.999C308.152 573.294 303.242 585.408 303.298 591C311.829 588.81 324.405 588.32 333.209 588.288C335.635 588.255 338.061 588.362 340.474 588.609C346.266 589.227 352.194 590.92 357.809 589.355C363.016 587.903 367.638 583.739 373.029 584.269C374.191 581.196 372.813 570.967 371.723 567.871C367.441 555.678 366.609 542.536 369.32 529.899C370.305 525.358 368.952 520.545 370.049 516.028C370.249 514.965 370.655 513.951 371.243 513.044C371.849 512.121 372.887 511.575 373.99 511.6C374.09 504.347 373.419 497.105 371.988 489.995C371.451 487.467 370.338 484.483 367.798 484.05C365.507 483.665 363.577 485.598 361.742 487.026C359.848 488.483 357.662 489.512 355.334 490.043C354.395 490.15 353.496 490.477 352.706 490.997C351.601 491.912 351.449 493.565 350.552 494.68C348.949 496.677 345.369 496.501 344.231 498.803C343.975 499.49 343.772 500.196 343.622 500.913C343.085 502.278 342.171 503.46 340.987 504.323C339.196 506 337.02 507.207 334.651 507.837Z" fill="#5E81F4"/>
<path d="M349.846 462.57C350.126 461.477 350.086 460.176 349.198 459.441C348.758 459.098 348.189 458.97 347.717 458.643C347.052 458.085 346.507 457.398 346.116 456.623C343.644 453.179 339.037 452.021 335.223 453.886C332.334 455.394 330.581 458.412 328.02 460.455C326.708 461.509 325.195 462.291 323.882 463.337C321.259 465.606 319.391 468.619 318.528 471.974C317.688 475.312 317.203 478.728 317.079 482.167C316.942 483.199 316.983 484.246 317.199 485.264C317.461 486.108 317.858 486.903 318.376 487.619C321.009 491.61 324.499 495.242 328.861 497.294C333.223 499.345 338.529 499.689 342.835 497.541C343.267 497.36 343.638 497.062 343.907 496.679C344.154 496.097 344.21 495.452 344.067 494.835C343.84 492.398 344.326 489.946 345.468 487.779C346.268 486.182 347.461 484.809 348.109 483.149C348.697 481.298 348.952 479.358 348.862 477.418C348.926 472.413 348.581 467.408 349.846 462.57Z" fill="#2D293D"/>
<rect x="357" y="360" width="42" height="42" fill="#5E81F4"/>
<path d="M383.347 394.777C382.772 396.027 381.818 397.002 380.659 397.526C379.973 397.809 379.252 397.963 378.522 397.982C377.734 398.047 376.942 397.937 376.191 397.658C375.192 397.214 374.334 396.443 373.729 395.442C373.131 394.442 372.651 393.359 372.299 392.22C372.063 391.651 371.964 391.023 372.012 390.398C372.626 390.314 373.185 389.958 373.565 389.409C373.791 388.856 373.805 388.222 373.604 387.657C373.558 387.482 373.511 387.316 373.457 387.158C373.34 386.773 372.936 386.046 373.216 385.722C373.496 385.398 374.148 385.407 374.405 385.275C375.164 384.763 375.975 384.355 376.821 384.058C377.587 383.943 378.366 383.999 379.113 384.224C379.215 384.243 379.312 384.285 379.4 384.347C379.498 384.439 379.571 384.56 379.61 384.697C379.827 385.293 379.952 385.95 380.122 386.563C380.272 387.205 380.566 387.794 380.977 388.27C381.332 388.61 381.733 388.882 382.166 389.076L383.207 389.61C383.389 389.692 383.556 389.814 383.696 389.969C383.829 390.181 383.91 390.429 383.929 390.687C384.122 392.085 383.918 393.517 383.347 394.777Z" fill="#A0616A"/>
<path opacity="0.1" d="M380 387.736C378.3 389.085 375.625 389.39 373.485 388.478C373.438 388.359 373.392 388.247 373.337 388.14C373.221 387.879 372.817 387.386 373.097 387.167C373.376 386.947 374.029 386.953 374.285 386.864C375.044 386.517 375.855 386.24 376.7 386.039C377.466 385.961 378.244 386 378.991 386.152C379.093 386.165 379.19 386.193 379.278 386.235C379.376 386.297 379.449 386.38 379.487 386.472C379.705 386.894 379.829 387.321 380 387.736Z" fill="black"/>
<path d="M376.5 389C379.538 389 382 386.538 382 383.5C382 380.462 379.538 378 376.5 378C373.462 378 371 380.462 371 383.5C371 386.538 373.462 389 376.5 389Z" fill="#A0616A"/>
<path d="M393 401H366.373C365.557 399.255 364.823 397.501 364 395.756V395.756C364.088 395.341 364.251 394.943 364.481 394.582C364.72 394.224 365.13 394.003 365.574 393.995C365.81 393.995 366.079 394.081 366.25 393.917C366.421 393.752 366.364 393.619 366.487 393.51C366.609 393.4 366.902 393.4 367.131 393.416C367.628 393.431 368.1 393.204 368.386 392.813C368.474 392.667 368.581 392.533 368.704 392.414C368.919 392.314 369.151 392.255 369.389 392.242C370.049 392.101 370.441 391.459 370.938 391.06C371.182 390.795 371.566 390.694 371.917 390.802C371.996 390.841 372.066 390.897 372.12 390.966C372.254 391.163 372.346 391.384 372.389 391.616C372.685 392.915 373.436 394.079 374.517 394.911C375.681 395.755 377.181 396.049 378.596 395.71C380.012 395.371 381.192 394.436 381.806 393.165C382.2 392.219 382.426 391.217 382.475 390.199C382.475 390.144 382.475 390.113 382.475 390.066C383.146 389.906 383.857 390.041 384.415 390.434C384.956 390.832 385.535 391.18 386.143 391.475C386.869 391.749 387.774 391.749 388.271 392.257C388.483 392.461 388.63 392.743 388.899 392.868C389.066 392.931 389.242 392.97 389.421 392.985C390.344 393.224 391.099 393.86 391.467 394.707C392.057 395.963 392.442 397.299 392.609 398.668L393 401Z" fill="#F86D70"/>
<path d="M372.522 374.076C372.114 374.403 371.767 374.798 371.499 375.245C370.996 376.065 370.292 376.748 369.453 377.232C369.101 377.353 368.781 377.55 368.515 377.808C368.384 378.004 368.3 378.226 368.269 378.459C368.098 379.269 368.01 380.094 368.007 380.922C367.976 381.338 368.046 381.756 368.21 382.141C368.379 382.492 368.701 382.792 368.76 383.176C368.772 383.48 368.738 383.784 368.658 384.078C368.577 384.393 368.702 384.725 368.971 384.913C369.124 384.967 369.283 385.003 369.445 385.021C370.29 385.205 370.578 386.19 370.704 387C370.992 387 371.119 386.658 371.186 386.391L372.032 382.508C372.133 382.091 372.285 381.598 372.717 381.456C373.012 381.394 373.318 381.394 373.613 381.456C374.78 381.557 375.76 380.663 376.902 380.413C377.27 380.345 377.645 380.322 378.018 380.346C378.914 380.346 379.963 380.755 380.157 381.582C380.157 381.715 380.208 381.882 380.335 381.949C380.464 381.986 380.602 381.986 380.732 381.949C381.298 381.89 381.637 382.525 381.806 383.043L382.398 384.938C382.491 385.222 382.643 385.564 382.956 385.597C383.252 385.596 383.501 385.378 383.539 385.088C383.552 384.805 383.512 384.522 383.421 384.253C383.142 383.018 383.573 381.749 383.835 380.505C384.097 379.261 384.139 377.833 383.26 376.873C382.939 376.53 382.516 376.272 382.22 375.904C381.924 375.537 381.789 375.145 381.501 374.802C380.353 373.807 378.92 373.189 377.401 373.032C375.705 372.884 374.004 373.248 372.522 374.076Z" fill="#3F3D56"/>
<g opacity="0.1">
<path d="M382.744 384.398C382.448 384.398 382.304 384.03 382.216 383.752L381.656 381.895C381.496 381.387 381.176 380.765 380.64 380.815C380.517 380.851 380.387 380.851 380.264 380.815C380.144 380.749 380.128 380.594 380.096 380.455C379.912 379.636 378.92 379.285 378.072 379.244C377.718 379.219 377.363 379.244 377.016 379.317C375.936 379.555 375.008 380.43 373.904 380.332C373.624 380.279 373.336 380.279 373.056 380.332C372.648 380.479 372.504 380.954 372.408 381.371C372.128 382.639 371.856 383.907 371.608 385.167C371.544 385.429 371.424 385.748 371.152 385.765C371.032 384.946 370.76 384.005 369.96 383.825C369.807 383.811 369.656 383.776 369.512 383.719C369.406 383.66 369.323 383.565 369.28 383.449C369.28 383.564 369.232 383.686 369.216 383.801C369.139 384.11 369.257 384.436 369.512 384.619C369.657 384.672 369.807 384.707 369.96 384.725C370.76 384.905 371.032 385.871 371.152 386.665C371.424 386.665 371.544 386.329 371.608 386.067C371.888 384.799 372.16 383.531 372.408 382.263C372.504 381.854 372.648 381.371 373.056 381.232C373.336 381.171 373.625 381.171 373.904 381.232C375.008 381.33 375.936 380.455 377.016 380.209C377.364 380.142 377.719 380.12 378.072 380.144C378.92 380.144 379.912 380.545 380.096 381.355C380.096 381.485 380.144 381.649 380.264 381.715C380.387 381.751 380.517 381.751 380.64 381.715C381.176 381.657 381.496 382.279 381.656 382.786L382.216 384.644C382.304 384.922 382.448 385.257 382.744 385.29C383.024 385.288 383.26 385.075 383.296 384.791C383.313 384.569 383.286 384.347 383.216 384.136C383.122 384.311 382.938 384.413 382.744 384.398Z" fill="black"/>
<path d="M369.28 382.042C369.224 381.665 368.92 381.371 368.76 381.027C368.655 380.795 368.593 380.546 368.576 380.291C368.576 380.43 368.576 380.561 368.576 380.7C368.546 381.108 368.612 381.518 368.768 381.895C368.896 382.173 369.12 382.418 369.232 382.713C369.289 382.494 369.305 382.267 369.28 382.042Z" fill="black"/>
<path d="M383.576 379.415C383.258 380.475 383.104 381.58 383.12 382.688C383.224 381.883 383.376 381.085 383.576 380.299C383.709 379.698 383.755 379.081 383.712 378.466C383.687 378.785 383.641 379.102 383.576 379.415Z" fill="black"/>
</g>
<path d="M368.715 401H363C363.252 399.331 363.703 397.705 364.342 396.163C364.393 396.004 364.475 395.86 364.585 395.741C364.608 395.713 364.635 395.689 364.665 395.67C364.834 395.527 365.069 395.471 365.252 395.336C365.435 395.2 365.457 395.057 365.626 395.002C366.261 394.985 366.893 395.099 367.489 395.336C367.658 395.356 367.824 395.402 367.981 395.471C368.353 395.695 368.631 396.065 368.759 396.505C369.243 397.929 368.876 399.473 368.715 401Z" fill="#F86D70"/>
<defs>
<linearGradient id="paint0_linear_0_1207" x1="614.998" y1="747.016" x2="614.998" y2="150.96" gradientUnits="userSpaceOnUse">
<stop stop-color="#808080" stop-opacity="0.25"/>
<stop offset="0.54" stop-color="#808080" stop-opacity="0.12"/>
<stop offset="1" stop-color="#808080" stop-opacity="0.1"/>
</linearGradient>
<linearGradient id="paint1_linear_0_1207" x1="639.02" y1="424.008" x2="639.02" y2="337" gradientUnits="userSpaceOnUse">
<stop stop-color="#808080" stop-opacity="0.25"/>
<stop offset="0.54" stop-color="#808080" stop-opacity="0.12"/>
<stop offset="1" stop-color="#808080" stop-opacity="0.1"/>
</linearGradient>
<linearGradient id="paint2_linear_0_1207" x1="289.933" y1="767.043" x2="415.971" y2="767.043" gradientUnits="userSpaceOnUse">
<stop stop-color="#808080" stop-opacity="0.25"/>
<stop offset="0.54" stop-color="#808080" stop-opacity="0.12"/>
<stop offset="1" stop-color="#808080" stop-opacity="0.1"/>
</linearGradient>
</defs>
</svg>
